<?xml version="1.0" encoding="utf-8"?>
<!-- Generator: Adobe Illustrator 27.5.0, SVG Export Plug-In . SVG Version: 6.00 Build 0)  -->
<svg version="1.1" xmlns="http://www.w3.org/2000/svg" xmlns:xlink="http://www.w3.org/1999/xlink" x="0px" y="0px"
	 viewBox="0 0 750 500" style="enable-background:new 0 0 750 500;">
<g id="OBJECTS">
	<g style="opacity:0.3;">
		<path style="fill:#D8E9EB;" d="M38,334.451c-14.555-111.062,126.006-95.007,127.002-168.779
			C128.609,24.854,247.134,0.236,389.283,57.693c32.564,9.824,59.992,8.031,84.299,1.488c1.024-0.269,2.027-0.556,3.03-0.843
			c1.738-0.502,3.455-1.022,5.15-1.56c43.517-13.876,71.481-30.167,107.819-27.783c2.775,0.179,5.562,0.538,8.379,1.075
			c6.792,1.327,13.711,3.765,20.834,7.601c20.214,10.577,25.373,26.265,34.634,40.893c45.07,71.187-45.907,95.891-20.54,160.109
			c12.251,31.015,45.318,24.073,60.915,98.578c23.026,109.993-120.867,137.284-298.656,143.063
			C219.883,486.011,47.781,409.083,38,334.451z"/>
	</g>
	<g>
		<g>
			<g>
				<polygon style="fill:#E5B7AC;" points="267.201,227.883 257.45,207.685 273.255,194.616 279.781,211.489 279.169,212.281 
					270.413,223.694 269.861,224.41 268.072,226.741 				"/>
				<path style="opacity:0.5;fill:#CA7E86;" d="M273.335,219.885c0,0-6.281-12.707-2.754-20.753l8.859,12.797l-0.271,0.352
					L273.335,219.885z"/>
				<g>
					<g>
						<path style="fill:#E5B7AC;" d="M297.398,206.073c-0.55,1.147-2.661,1.462-3.278,2.604c-0.545,1.001-1.15,1.92-1.784,2.754
							c-0.014,0.016-0.016,0.026-0.029,0.042c-0.086,0.117-0.181,0.233-0.267,0.35c-0.057,0.075-0.111,0.141-0.177,0.214
							c-4.113,5.067-5.529,9.098-8.921,7.49c-1.76-0.907-7.78-3.855-9.795-8.408c-0.087-0.216-3.368-7.274-3.344-9.454
							c0.033-2.178-4.141-20.272-4.141-20.272c8.336-13.324,19.735-8.619,19.735-8.619s0,0-0.002,0.009
							c7.604,2.131,13.182,13.145,10.584,24.248C294.395,202.997,297.918,204.968,297.398,206.073z"/>
						<path style="fill:#66362B;" d="M276.256,198.981l4.606-9.615c0,0,5.34-0.82,7.141-7.019l8.069,3.868
							c8.433,1.004,11.066-13.609,10.992-17.363c-2.963,3.105-17.538,1.275-23.439,0.407c-5.901-0.868-20.935-2.726-24.103,8.605
							c-3.756,13.433,2.338,26.176,2.338,26.176l12.765-10.002l0.053,4.257L276.256,198.981z"/>
						<g>
							<path style="fill:#66362B;" d="M286.257,192.333c-0.113-0.443,2.928-1.581,4.895-0.383c1.241,0.755,2.078,2.009,2.489,3.729
								c0.085,0.356-0.049,0.744-0.364,0.928c-0.512,0.298-1.113,0.007-1.236-0.52c-0.302-1.285-0.89-2.2-1.745-2.721
								C288.938,192.538,286.28,192.422,286.257,192.333z"/>
						</g>
						<path style="fill:#434244;" d="M290.489,196.028c0,0,0.657,0.034,0.249,2.911c-0.216,1.517-0.988,2.617-1.459,2.505
							c-0.472-0.112-0.582-1.415-0.248-2.911C289.365,197.038,290.018,195.917,290.489,196.028z"/>
						<g>
							<path style="fill:#C87E84;" d="M292.336,211.431c-0.014,0.016-0.016,0.026-0.029,0.042c-0.086,0.117-0.181,0.233-0.267,0.35
								c-0.057,0.075-0.111,0.141-0.177,0.214c-0.137-0.002-0.283-0.007-0.427-0.02c-3.227-0.286-4.525-2.899-4.577-3.009
								c-0.053-0.11-0.236-0.378,0.048-0.548c0.158-0.091,0.312-0.075,0.47,0.256c0.014,0.023,1.169,2.446,4.155,2.716
								C291.811,211.456,292.068,211.447,292.336,211.431z"/>
						</g>
						<g>
							<path style="fill:#CA7E86;" d="M285.202,203.943c0.067-0.287-0.585-0.684-1.457-0.888c-0.871-0.203-1.632-0.135-1.699,0.152
								c-0.067,0.287,0.585,0.685,1.456,0.888C284.375,204.298,285.135,204.23,285.202,203.943z"/>
							<path style="fill:#CA7E86;" d="M285.978,202.367c-0.144,0.257-0.894,0.11-1.674-0.328c-0.78-0.438-1.295-1.002-1.151-1.259
								c0.145-0.257,0.894-0.11,1.674,0.329C285.607,201.546,286.123,202.11,285.978,202.367z"/>
						</g>
					</g>
					<g>
						<path style="fill:#E5B7AC;" d="M275.071,196.06c0,0-1.392-8.832-7.067-8.206c-5.674,0.626-3.211,15.326,5.483,14.476
							L275.071,196.06z"/>
						<path style="fill:#CA7E86;" d="M268.701,191.925c3.719,0.886,5.002,4.754,5.054,4.919c0.054,0.168-0.038,0.347-0.206,0.401
							c-0.059,0.019-0.119,0.02-0.176,0.006c-0.103-0.026-0.191-0.103-0.225-0.212c-0.008-0.023-0.488-1.467-1.669-2.738
							c-1.488,0.512-1.378,2.839-1.376,2.863c0.01,0.176-0.123,0.327-0.299,0.338c-0.034,0.002-0.068-0.001-0.098-0.009
							c-0.131-0.033-0.232-0.147-0.24-0.289c-0.007-0.115-0.123-2.562,1.516-3.383c-0.621-0.544-1.387-1.014-2.33-1.252
							c-0.032-0.008-0.064-0.015-0.096-0.023c-0.159-0.012-0.278-0.212-0.238-0.384
							C268.358,191.992,268.529,191.885,268.701,191.925z"/>
					</g>
				</g>
			</g>
			<g>
				<path style="fill:#E5B7AC;" d="M240.526,234.895c0,0-24.258,8.506-28.245,9.049c-3.987,0.543-29.331-3.444-29.331-3.444
					c-0.728-6.876,5.975-7.42,5.975-7.42c1.63,0.185,13.221-0.543,18.468-1.814c5.247-1.26,7.246,0.543,9.962,0
					c1.901-0.38,10.233-4.204,15.089-6.475c0.391-0.185,0.75-0.348,1.086-0.511c1.499-0.706,2.466-1.162,2.466-1.162
					C243.6,222.576,240.526,234.895,240.526,234.895z"/>
				<path style="opacity:0.5;fill:#CA7E86;" d="M236.995,233.809l-4.975,1.901c-1.217-4.628-0.304-8.723,0.424-10.918
					c0.391-0.185,0.75-0.348,1.086-0.511L236.995,233.809z"/>
				<g>
					<path style="fill:#E5B7AC;" d="M182.83,241.75c-4.193-0.054-4.921-3.096-4.921-3.096s-1.054-1.456-1.293-2.183
						c-0.239-0.728,0.728-2.423,0.728-2.423s-0.239-1.054,0-2.26c0.239-1.206,1.369-2.249,1.369-2.249s-0.619-1.043,0-2.107
						c0.837-1.445,2.792-0.456,2.792-0.456l3.27,2.314c0,0,0.511-0.163,1.141-0.174c0.804-0.011,1.803,0.206,2.162,1.304
						c0.652,1.934,2.444,3.129,2.444,3.129C191.011,235.351,187.035,241.793,182.83,241.75z"/>
					<path style="opacity:0.5;fill:#CA7E86;" d="M187.23,231.093l-2.455-1.803c0,0,0.511-0.163,1.141-0.174
						C186.481,229.67,187.23,231.093,187.23,231.093z"/>
				</g>
				<path style="fill:#475F93;" d="M254.324,207.59c0,0-17.781,13.903-21.765,14.809c0,0,0.108,14.646,5.613,19.192l21.365-13.707
					L254.324,207.59z"/>
			</g>
			<path style="fill:#353436;" d="M265.796,366.701c0,0,4.875-4.481,13.159-4.074c8.283,0.407,20.714-13.949,18.761-15.925
				c-1.953-1.976-10.342-11.37-22.428-7.975S261.872,360.59,265.796,366.701z"/>
			<path style="fill:#E5B7AC;" d="M343.913,430.61l-10.146,7.974c0,0-19.532-29.309-27.278-37.066
				c-0.152-0.141-0.282-0.283-0.424-0.413c-7.42-7.061-5.432-22.639-7.235-25.355c-1.238-1.858-16.904-10.505-26.659-15.774
				c-4.497-2.423-7.746-4.139-7.746-4.139c1.445-13.938,21.184-16.295,21.184-16.295s4.78,3.791,10.766,9.027
				c9.364,8.224,21.662,19.978,23.096,26.279c0.63,2.748,2.651,7.995,5.29,14.209h0.011
				C332.028,406.167,343.913,430.61,343.913,430.61z"/>
			<path style="opacity:0.5;fill:#CA7E86;" d="M296.374,348.569c-4.639,0.152-13.275,0.576-17.153,1.836
				c-3.889,1.26-6.105,6.616-7.05,9.571c-4.497-2.423-7.746-4.139-7.746-4.139c1.445-13.938,21.184-16.295,21.184-16.295
				S290.389,343.333,296.374,348.569z"/>
			<path style="fill:#C54456;" d="M343.913,430.61l-10.146,7.974c0,0-19.532-29.309-27.278-37.066
				c2.835-4.986,8.484-11.885,18.272-12.46h0.011C332.028,406.167,343.913,430.61,343.913,430.61z"/>
			<g>
				<path style="fill:#E8AE31;" d="M365.357,437.551c-1.054,0.663-2.129,1.249-3.237,1.76c-0.326,0.152-0.652,0.304-0.988,0.456
					c-9.734,4.139-8.93,3.433-11.874,7.8c-4.813,7.148-7.594,5.138-7.594,5.138s-4.335-5.725-6.648-9.962
					c-1.108-2.031-1.749-3.715-1.228-4.28c2.097-2.281,3.976-3.248,6.083-6.268c2.835-4.03,0.837-7.843,0.837-7.843
					s3.585-1.206,7.354,1.206c0.467,0.293,1.293,0.391,2.346,0.337c1.076-0.065,2.39-0.282,3.802-0.641
					c4.215-1.043,9.321-3.216,11.667-5.551c0.163-0.152,0.304-0.304,0.467-0.435c6.062-5.551,11.711-1.195,11.711-1.195
					C380.055,423.994,373.418,432.598,365.357,437.551z"/>
				<g>
					<path style="fill:#5369A7;" d="M346.957,452.397l-0.341,0.212c-0.538,0.335-1.246,0.169-1.58-0.369l-0.212-0.341
						c-0.335-0.538-0.169-1.246,0.369-1.58l0.341-0.212c0.538-0.335,1.246-0.169,1.58,0.369l0.212,0.341
						C347.661,451.355,347.496,452.063,346.957,452.397z"/>
					<path style="fill:#5369A7;" d="M351.21,447.817l-0.341,0.212c-0.538,0.335-1.246,0.17-1.581-0.369l-0.212-0.341
						c-0.335-0.538-0.169-1.246,0.369-1.581l0.341-0.212c0.538-0.334,1.246-0.169,1.58,0.369l0.212,0.341
						C351.913,446.775,351.748,447.482,351.21,447.817z"/>
					<path style="fill:#5369A7;" d="M363.18,440.635l-0.341,0.212c-0.538,0.335-1.246,0.17-1.58-0.369l-0.212-0.342
						c-0.334-0.538-0.169-1.246,0.369-1.58l0.342-0.212c0.538-0.334,1.246-0.169,1.58,0.369l0.212,0.341
						C363.883,439.592,363.718,440.3,363.18,440.635z"/>
					<path style="fill:#5369A7;" d="M367.616,437.877l-0.342,0.212c-0.538,0.335-1.246,0.17-1.58-0.369l-0.212-0.342
						c-0.334-0.538-0.169-1.246,0.369-1.58l0.341-0.212c0.538-0.335,1.246-0.169,1.58,0.369l0.212,0.341
						C368.319,436.835,368.154,437.543,367.616,437.877z"/>
					<path style="fill:#5369A7;" d="M371.831,434.609l-0.342,0.212c-0.538,0.334-1.246,0.169-1.58-0.369l-0.212-0.341
						c-0.335-0.538-0.17-1.246,0.369-1.581l0.341-0.212c0.538-0.335,1.246-0.169,1.58,0.369l0.212,0.341
						C372.534,433.567,372.369,434.274,371.831,434.609z"/>
					<path style="fill:#5369A7;" d="M375.612,430.948l-0.341,0.212c-0.538,0.334-1.246,0.169-1.58-0.369l-0.212-0.341
						c-0.335-0.538-0.169-1.246,0.369-1.581l0.341-0.212c0.538-0.335,1.246-0.17,1.58,0.369l0.212,0.341
						C376.316,429.905,376.15,430.613,375.612,430.948z"/>
				</g>
				<path style="fill:#5369A7;" d="M359.334,437.951c-9.73,4.142-8.932,3.445-11.868,7.8c-3.79,5.621-6.261,5.371-7.17,5.098
					l1.363,1.86c0,0,2.78,2.008,7.603-5.143c2.936-4.354,2.137-3.658,11.868-7.8c9.748-4.14,19.264-14.759,16.919-21.685
					c0,0-0.591-0.389-1.578-0.855C377.718,424.138,368.645,433.996,359.334,437.951z"/>
				<path style="fill:#5369A7;" d="M366.341,419.264c-0.559,2.122-2.23,5.692-7.243,7.342c-4.124,1.36-6.978,0.399-8.693-0.711
					c4.278-0.239,12.345-3.078,15.477-6.196C366.037,419.547,366.185,419.402,366.341,419.264z"/>
				<path style="fill:#5369A7;" d="M355.471,427.275c0,0-9.636-0.695-10.863,6.29c-0.923,5.323-6.844,8.147-9.592,9.18
					c-1.108-2.031-1.749-3.715-1.228-4.28c2.097-2.281,3.976-3.248,6.083-6.268c2.835-4.03,0.837-7.843,0.837-7.843
					s3.585-1.206,7.354,1.206c0.467,0.293,1.293,0.391,2.346,0.337c1.076-0.065,2.39-0.282,3.802-0.641L355.471,427.275z"/>
			</g>
			<path style="fill:#E5B7AC;" d="M234.008,343.616c0,0-9.636,8.267-20.401,16.871c-11.211,8.962-23.65,18.283-27.669,18.978
				c-3.433,0.597-12.927-6.16-22.531-13.96c-12.406-10.07-24.997-21.89-24.997-21.89c-0.543-8.962,10.049-9.777,10.049-9.777
				c5.975,4.617,15.209,9.505,23.628,12.764c0.413,0.163,0.804,0.326,1.184,0.511c7.518,3.465,10.222,10.353,10.222,10.353
				c2.401-3.531,6.41-8.017,10.95-12.667c5.356-5.486,11.461-11.189,16.534-15.806c6.16-5.584,10.809-9.549,10.809-9.549
				c9.538,0.706,11.83,10.7,12.286,17.609C234.312,340.78,234.008,343.616,234.008,343.616z"/>
			<path style="opacity:0.5;fill:#CA7E86;" d="M234.008,343.616c0,0-9.636,8.267-20.401,16.871
				c-2.803-2.173-8.387-6.214-13.145-7.746c-4.552-1.466-5.736-5.529-6.018-7.941c5.356-5.486,11.461-11.189,16.534-15.806
				l23.096,8.061C234.312,340.78,234.008,343.616,234.008,343.616z"/>
			<path style="fill:#C54456;" d="M173.271,347.114c-8.463,4.15-9.788,13.514-9.864,18.392c-12.406-10.07-24.997-21.89-24.997-21.89
				c-0.543-8.962,10.049-9.777,10.049-9.777c5.975,4.617,15.209,9.505,23.628,12.764
				C172.499,346.766,172.891,346.929,173.271,347.114z"/>
			<g>
				<path style="fill:#E8AE31;" d="M118.049,332.223c1.099-0.585,2.214-1.092,3.356-1.522c0.336-0.128,0.672-0.256,1.019-0.384
					c10.007-3.425,9.154-2.779,12.406-6.922c5.316-6.782,7.945-4.577,7.945-4.577s3.91,6.023,5.912,10.416
					c0.958,2.106,1.476,3.832,0.915,4.358c-2.256,2.124-4.2,2.952-6.52,5.813c-3.119,3.815-1.401,7.762-1.401,7.762
					s-3.663,0.944-7.248-1.734c-0.445-0.326-1.261-0.483-2.316-0.505c-1.077-0.013-2.404,0.109-3.839,0.365
					c-4.279,0.736-9.529,2.534-12.038,4.694c-0.174,0.14-0.325,0.281-0.497,0.4c-6.447,5.099-11.766,0.346-11.766,0.346
					C102.41,344.683,109.651,336.581,118.049,332.223z"/>
				<g>
					<path style="fill:#5369A7;" d="M137.472,318.744l0.356-0.187c0.561-0.295,1.255-0.079,1.55,0.482l0.187,0.356
						c0.295,0.561,0.079,1.255-0.482,1.55l-0.356,0.187c-0.561,0.295-1.255,0.079-1.55-0.482l-0.187-0.355
						C136.696,319.733,136.911,319.039,137.472,318.744z"/>
					<path style="fill:#5369A7;" d="M132.901,323.005l0.356-0.187c0.561-0.295,1.255-0.079,1.549,0.482l0.187,0.356
						c0.295,0.561,0.079,1.255-0.482,1.55l-0.356,0.187c-0.561,0.294-1.255,0.079-1.549-0.482l-0.187-0.355
						C132.124,323.994,132.34,323.3,132.901,323.005z"/>
					<path style="fill:#5369A7;" d="M120.443,329.305l0.356-0.187c0.561-0.295,1.255-0.079,1.55,0.482l0.187,0.356
						c0.295,0.561,0.079,1.255-0.483,1.55l-0.355,0.187c-0.561,0.294-1.254,0.079-1.549-0.482l-0.187-0.355
						C119.666,330.293,119.882,329.599,120.443,329.305z"/>
					<path style="fill:#5369A7;" d="M115.819,331.734l0.356-0.187c0.561-0.295,1.255-0.079,1.55,0.482l0.187,0.356
						c0.295,0.561,0.079,1.255-0.482,1.55l-0.355,0.187c-0.561,0.295-1.255,0.079-1.549-0.482l-0.187-0.355
						C115.042,332.723,115.258,332.029,115.819,331.734z"/>
					<path style="fill:#5369A7;" d="M111.38,334.69l0.356-0.187c0.561-0.295,1.255-0.079,1.549,0.482l0.187,0.355
						c0.295,0.561,0.079,1.255-0.482,1.55l-0.355,0.187c-0.561,0.295-1.255,0.079-1.55-0.482l-0.187-0.356
						C110.602,335.678,110.818,334.985,111.38,334.69z"/>
					<path style="fill:#5369A7;" d="M107.343,338.069l0.356-0.187c0.561-0.295,1.255-0.079,1.55,0.482l0.187,0.355
						c0.295,0.561,0.079,1.255-0.482,1.55l-0.356,0.187c-0.561,0.295-1.255,0.079-1.55-0.482l-0.187-0.356
						C106.566,339.057,106.782,338.363,107.343,338.069z"/>
				</g>
				<path style="fill:#5369A7;" d="M124.085,332.259c10.004-3.428,9.157-2.792,12.4-6.922c4.186-5.332,6.633-4.905,7.52-4.567
					l-1.225-1.954c0,0-2.628-2.204-7.955,4.581c-3.243,4.131-2.396,3.494-12.4,6.922c-10.021,3.426-20.28,13.329-18.44,20.406
					c0,0,0.561,0.431,1.512,0.967C104.751,344.708,114.512,335.531,124.085,332.259z"/>
				<path style="fill:#5369A7;" d="M115.746,350.391c0.71-2.076,2.636-5.516,7.754-6.8c4.211-1.059,6.989,0.106,8.619,1.337
					c-4.284-0.071-12.535,2.178-15.884,5.062C116.07,350.131,115.912,350.264,115.746,350.391z"/>
				<path style="fill:#5369A7;" d="M127.166,343.186c0,0,9.56,1.389,11.289-5.489c1.305-5.242,7.414-7.632,10.23-8.463
					c0.958,2.106,1.476,3.832,0.915,4.358c-2.256,2.124-4.2,2.952-6.52,5.813c-3.119,3.815-1.401,7.762-1.401,7.762
					s-3.663,0.944-7.248-1.734c-0.445-0.326-1.261-0.483-2.316-0.505c-1.077-0.013-2.404,0.109-3.839,0.365L127.166,343.186z"/>
			</g>
			<path style="fill:#344975;" d="M222.511,299.8c0,0,7.423,3.078,14.213,8.238s41.833,8.484,41.833,8.484l-11.688-25.051
				l-22.191-3.802L222.511,299.8z"/>
			<path style="fill:#434244;" d="M297.722,346.701c0,0-6.138-1.369-17.36,0.261c-11.233,1.629-14.568,19.739-14.568,19.739
				s-2.966-2.824-6.801-6.312c0,0-0.011-0.011-0.043-0.043c-6.17-5.605-14.535-12.906-16.436-13.014
				c-2.977-0.174-20.749,16.306-21.846,17.327c-0.043,0.033-0.054,0.054-0.054,0.054s-3.259-7.604-14.666-12.493
				c-0.749-0.326-1.456-0.684-2.107-1.076c-1.684-0.999-3.063-2.205-4.204-3.509c-5.171-5.921-5.28-13.884-5.28-13.884
				c0.934,0,4.345-2.499,8.55-5.975c0,0,0,0,0.011-0.011c0.011-0.011,0.043-0.033,0.087-0.065
				c8.897-7.354,21.281-18.978,21.412-20.564c0.174-2.357,0.543-5.801,0.902-7.246c0.054-0.206,0.261-0.521,0.587-0.891
				c0,0,0,0,0-0.011c1.532-1.76,5.519-4.932,6.942-6.04c0.326-0.261,0.521-0.402,0.521-0.402c0.75-0.304,1.543-0.543,2.357-0.728
				c4.356-0.956,9.668-0.315,15.089,1.13c0.804,0.206,1.619,0.435,2.423,0.684c13.786,4.193,27.484,12.775,27.484,12.775
				l-1.575,7.811l-1.249,6.181c0,0,3.726,3.748,4.639,4.834c0.228,0.272,0.402,0.619,0.543,1.021
				c0.272,0.793,0.413,1.793,0.511,2.857c0.054,0.532,0.098,1.086,0.141,1.63c0.022,0.282,0.282,0.76,0.695,1.369
				c0.326,0.478,0.75,1.043,1.26,1.662C289.531,338.521,297.722,346.701,297.722,346.701z"/>
			<g>
				<path style="fill:#E8AE31;" d="M244.437,295.306c-0.369,1.13-9.266,27.789-21.249,34.741
					c-7.865,4.563-15.817,15.719-19.348,21.097c-1.684-0.999-3.063-2.205-4.204-3.509c3.922-5.921,12.189-17.273,20.825-22.281
					c8.473-4.921,16.458-24.584,18.826-31.743L244.437,295.306z"/>
			</g>
			<path style="opacity:0.2;fill:#434244;" d="M280.72,306.409l-1.575,7.811c-30.005-18.261-47.554-10.451-48.455-10.798
				c-0.902-0.358-3.928,12.221-8.175,12.406c-4.063,0.163-18.196,10.874-19.511,11.874c8.897-7.354,21.281-18.978,21.412-20.564
				c0.174-2.357,0.543-5.801,0.902-7.246c0.054-0.206,0.261-0.521,0.587-0.891c0,0,0,0,0-0.011c1.532-1.76,5.519-4.932,6.942-6.04
				h17.968c0.804,0.206,1.619,0.435,2.423,0.684C267.022,297.827,280.72,306.409,280.72,306.409z"/>
			<path style="opacity:0.2;fill:#434244;" d="M258.95,360.345c-6.17-5.605-14.535-12.906-16.436-13.014
				c-2.977-0.174-20.749,16.306-21.846,17.327c1.217-1.467,29.717-29.576,30.901-32.585c1.217-3.085,15.265-7.789,15.265-7.789
				s-10.964,6.518-14.223,11.591C249.352,340.938,258.19,359.509,258.95,360.345z"/>
			<path style="fill:#5369A7;" d="M288.325,311.167c-1.412,3.053-6.833,3.053-6.833,3.053c-1.119-1.184-2.336-2.314-3.596-3.368
				c-5.106-4.269-11.178-7.441-16.415-9.386c-1.054-0.391-2.064-0.739-3.031-1.032c-18.413-5.595-34.687-0.989-35.882-0.641
				c-0.022,0-0.043,0.011-0.054,0.011c0.456-0.684,16.393-26.431,17.11-31.775c0.076-0.576,0.076-1.293,0.033-2.129
				c-0.13-1.955-0.554-4.563-1.097-7.517c-1.434-7.811-3.628-17.99-2.922-24.573c0.022-0.185,0.054-0.38,0.087-0.565
				c1.065-6.246,8.984-15.6,15.035-21.998c3.922-4.139,7.061-7.029,7.061-7.029s1.358-2.281,14.394,15.665
				c7.876,10.842,10.266,24.888,10.679,38.033c0.076,2.455,0.087,4.888,0.054,7.257c-0.098,5.921-0.478,11.483-0.782,16.252
				C281.079,298.261,288.325,311.167,288.325,311.167z"/>
			<path style="fill:#C54456;" d="M282.947,265.171c-4.324-0.478-18.957-1.966-23.411-0.587c-4.552,1.412-13.188,3.78-19.88,1.314
				c-0.13-1.955-0.554-4.563-1.097-7.517c2.281,0.511,12.417,2.564,18.218,1.13c6.127-1.521,19.641-3.139,26.116-1.597
				C282.969,260.37,282.98,262.803,282.947,265.171z"/>
			<path style="opacity:0.3;fill:#5369A7;" d="M277.896,310.852c-5.106-4.269-11.178-7.441-16.415-9.386
				c-1.054-0.391-2.064-0.739-3.031-1.032c-18.413-5.595-34.687-0.989-35.882-0.641c-0.022,0-0.043,0.011-0.054,0.011
				c0.456-0.684,16.393-26.431,17.11-31.775c0.076-0.576,0.076-1.293,0.033-2.129c-0.13-1.955-0.554-4.563-1.097-7.517
				c-1.434-7.811-3.628-17.99-2.922-24.573c0.022-0.185,0.054-0.38,0.087-0.565c1.314-6.312,13.34-16.61,21.727-15.556
				c0,0-15.317,20.738,10.016,23.9c0,0,2.039,17.584-13.275,33.59C245.934,283.807,265.055,298.359,277.896,310.852z"/>
			<g>
				<path style="fill:#344975;" d="M227.49,237.698c0,0,1.086,4.074,1.811,8.238c0.724,4.164,19.102,9.958,19.102,9.958
					s1.992-19.373-4.345-20.459C237.719,234.348,227.49,237.698,227.49,237.698z"/>
				<path style="fill:#E5B7AC;" d="M247.044,226.563c0,0-31.142,22.632-33.676,23.718c-2.535,1.086-8.872,6.337-9.053,14.847
					c-0.181,8.51,2.173,16.114,1.449,19.554l10.139-1.992c0,0,0.543-11.406,2.897-14.665c2.354-3.259,2.575-8.241,2.575-8.241
					l31.041-12.808C252.416,246.976,265.874,222.217,247.044,226.563z"/>
				<path style="opacity:0.5;fill:#CA7E86;" d="M229.481,238.875c0,0,6.84-0.724,9.078,1.901c2.238,2.625,7.034,10.992,7.034,10.992
					l9.326-11.806l-7.785-7.423l-5.522-0.724L229.481,238.875z"/>
				<path style="fill:#E5B7AC;" d="M215.754,281.294c0,0,2.497,4.386,2.025,7.515c-0.472,3.129,0.326,9.126-0.964,10.504
					c-1.29,1.378-3.299-0.488-3.14-6.178c0,0-1.896,1.624-2.566,2.646c-0.67,1.022-3.641,8.999-4.951,10.133
					c-1.31,1.133-1.828,0.145-1.284-2.549c0.544-2.693,2.616-8.702,2.539-8.796c-0.077-0.093-2.9,5.238-3.522,6.951
					c-0.622,1.714-2.204,4.944-3.104,5.373c-0.899,0.429-1.164-1.31-0.546-3.343c0.619-2.034,3.256-9.164,3.424-9.72
					c0.168-0.556-4.937,7.399-5.429,8.067c-0.493,0.668-2.264,1.066-1.592-1.472c0.672-2.538,4.66-8.566,4.66-8.566
					s-3.615,3.625-4.447,3.945c-0.832,0.321-2.081,0.568-1.517-0.837c0.564-1.404,4.395-6.106,4.629-6.456
					c0.234-0.35,3.08-7.352,6.841-9.076C207.982,277.947,214.599,280.211,215.754,281.294z"/>
				<path style="fill:#5369A7;" d="M248.511,221.21c0,0-17.762,15.401-21.021,16.487c0,0,11.135-2.173,13.579,1.63
					c2.444,3.802,3.802,14.394,7.333,16.567c0,0,8.691-11.678,16.023-13.036c7.333-1.358,8.923-11.639,4.19-18.448
					C263.882,217.601,257.817,214.07,248.511,221.21z"/>
			</g>
		</g>
		<g>
			<g>
				<path style="fill:#C48D80;" d="M461.611,216.717c0,0,0.486-0.341-4.648,5.279c-5.127,5.616-13.977,10.166-13.977,10.166
					l0.009-5.175l0.015-3.916l0.003-0.011c0,0-0.001-0.018-0.016-0.056c-0.038-0.185-0.167-0.766-0.34-1.585
					c-0.337-1.596-0.823-4.129-1.092-6.399c-0.449-3.689,5.947-7.742,5.947-7.742c0.093,0.075,6.545,2.763,6.545,2.763
					C455.297,213.394,458.38,215.12,461.611,216.717z"/>
				<g>
					<path style="fill:#C48D80;" d="M453.992,204.147c-0.334,0.66-4.408,2.544-6.193,3.342c-0.511,0.223-0.834,0.364-0.834,0.364
						s-1.79,11.431-1.89,11.639c-0.038,0.068-0.067,0.132-0.096,0.195c-0.656,1.471-1.318,2.559-1.974,3.381
						c-1.402,1.792-2.763,2.353-4.012,3.005c-1.095,0.512-2.385,0.689-3.786,0.536c-1.612-0.182-3.358-0.805-5.077-1.866
						c-1.667-1.013-3.304-2.441-4.779-4.254c-0.057-0.056-0.111-0.125-0.16-0.186l-0.077-0.089
						c-0.035-0.058-0.074-0.102-0.118-0.155c-0.054-0.069-0.108-0.139-0.162-0.208l-0.015-0.025
						c-0.668-0.886-1.311-1.879-1.892-2.955c-0.656-1.2-2.887-1.538-3.457-2.746c-0.566-1.165,3.168-3.25,1.506-9.54
						c-1.089-4.687-0.798-9.367,0.46-13.434c0,0,0.012-0.018,0.019-0.08c0.021-0.058,0.047-0.109,0.055-0.17l0.01-0.04
						c0.342-1.074,0.766-2.106,1.242-3.092c0.017-0.01,0.015-0.032,0.043-0.06c2.269-4.438,7.887-11.258,20.214-8.358
						c0.346,0.083,0.685,0.171,1.015,0.264c2.08,0.964,4.249,2.499,6.324,4.864c0.913,1.043,1.816,2.24,2.681,3.631
						C453.039,188.112,458.291,196.067,453.992,204.147z"/>
					<path style="fill:#434244;" d="M457.438,202.579c-0.735,4.065-3.381,7.462-3.381,7.462c-2.733,0.175-5.098-0.433-7.025-1.299
						c-0.729-0.327-1.392-0.685-1.988-1.056c-2.367-1.475-3.684-3.083-3.684-3.083s-7.96-10.026-7.339-17.787
						c0,0-8.226,0.451-12.581,4.339c0,0,0.005-0.022,0.019-0.078c0.02-0.059,0.044-0.112,0.053-0.174l0.011-0.044
						c0.154-0.519,0.523-1.671,1.243-3.084c0.009-0.015,0.015-0.037,0.038-0.061c1.942-3.805,6.345-9.355,15.322-9.045
						c1.496,0.055,3.125,0.264,4.892,0.682c0.347,0.089,0.683,0.176,1.017,0.273c0.241,0.07,0.481,0.139,0.713,0.224
						C455.991,183.485,458.858,194.704,457.438,202.579z"/>
					<path style="fill:#434244;" d="M427.301,205.373c-0.274-1.937-0.91-3.45-1.421-3.38l-2.493,0.435c0,0,0.492,0.695,1.989,0.653
						c-0.082,0.66-0.064,1.563,0.075,2.546c0.274,1.937,0.911,3.45,1.422,3.38C427.383,208.936,427.575,207.309,427.301,205.373z"/>
					<g>
						<path style="fill:#C48D80;" d="M441.487,206.91l0.677,1.962c4.924,1.009,8.097-4.16,8.253-8.034
							c0.076-1.954-0.616-3.573-2.23-3.932c-3.411-0.736-5.396,2.765-6.273,4.89C440.996,203.503,441.487,206.91,441.487,206.91z"/>
						<path style="fill:#B37061;" d="M447.222,200.353c-3.28,0.428-4.731,3.641-4.792,3.778c-0.062,0.139,0.002,0.302,0.141,0.364
							c0.049,0.022,0.101,0.028,0.151,0.021c0.091-0.013,0.173-0.071,0.213-0.162c0.009-0.019,0.552-1.218,1.682-2.206
							c1.234,0.575,0.93,2.566,0.927,2.587c-0.025,0.15,0.076,0.293,0.227,0.318c0.029,0.005,0.058,0.005,0.085,0.001
							c0.116-0.017,0.213-0.106,0.233-0.227c0.017-0.098,0.336-2.194-1-3.047c0.583-0.413,1.284-0.747,2.117-0.868
							c0.028-0.004,0.056-0.008,0.085-0.011c0.138,0.004,0.259-0.157,0.24-0.309C447.512,200.442,447.373,200.334,447.222,200.353z"
							/>
					</g>
					<g>
						<path style="fill:#434244;" d="M429.111,197.216c0.082-0.475-3.218-1.423-5.193-0.005c-1.247,0.894-2.026,2.28-2.319,4.121
							c-0.061,0.381,0.112,0.778,0.46,0.945c0.564,0.272,1.175-0.083,1.261-0.646c0.213-1.375,0.758-2.384,1.616-3.001
							C426.302,197.649,429.095,197.312,429.111,197.216z"/>
					</g>
					<g>
						<path style="fill:#B37061;" d="M429.804,218.352c-0.004,0.161-0.089,0.282-0.418,0.245c-0.018-0.011-2.419-0.256-4.034,1.894
							c-0.057-0.056-0.111-0.125-0.16-0.186l-0.077-0.089c-0.035-0.058-0.074-0.102-0.118-0.155c1.753-2.257,4.302-2.012,4.42-2.005
							C429.51,218.078,429.813,218.051,429.804,218.352z"/>
					</g>
					<g>
						<path style="fill:#B37061;" d="M432.353,211.9c-0.071-0.303,0.619-0.722,1.54-0.935c0.921-0.213,1.725-0.14,1.795,0.163
							c0.07,0.303-0.619,0.722-1.54,0.935C433.227,212.277,432.423,212.203,432.353,211.9z"/>
						<path style="fill:#B37061;" d="M431.536,210.233c0.152,0.272,0.944,0.118,1.769-0.344c0.825-0.462,1.37-1.056,1.218-1.328
							c-0.152-0.272-0.944-0.118-1.769,0.344C431.929,209.367,431.384,209.961,431.536,210.233z"/>
					</g>
					<path style="fill:#434244;" d="M454.057,187.905c0,0,2.702-3.975-0.147-5.391c-2.849-1.416-3.767-0.033-3.767-0.033
						s2.695-2.796,1.052-4.433s-3.985-0.394-3.985-0.394s2.32-4.194-1.015-5.658c-3.335-1.464-4.789,2.021-4.789,2.021
						s1.064-2.035-1.077-2.822c-2.141-0.786-2.778,1.419-2.778,1.419s-1.343-3.195-4.898-2.867
						c-3.555,0.329-2.961,3.677-2.961,3.677s-1.016-1.575-3.192-0.77c-2.176,0.806-0.289,2.921-0.289,2.921s-2.883-1.987-5.465-0.2
						c-2.582,1.786,0.098,4.6,0.098,4.6s-2.803-0.331-3.846,2.742c-1.044,3.073,1.809,4.149,1.809,4.149s-2.977-0.555-2.388,2.686
						c0.452,2.483,3.443,1.496,3.443,1.496s-0.45,2.972,2.935,2.967c3.365-0.004,3.104-3.673,3.104-3.673s1.569,1.75,3.211,0.959
						c1.642-0.79,2.136-2.836,2.136-2.836c0.55,1.693,3.386,1.693,3.386-0.339L454.057,187.905z"/>
				</g>
				<path style="opacity:0.3;fill:#C38D80;" d="M445.252,209.965c0,0,5.095,13.624-2.257,18.642l0.015-5.536l0.003-0.011
					c0,0-0.001-0.018-0.016-0.056C443.722,221.709,446.716,215.863,445.252,209.965z"/>
			</g>
			<g>
				<path style="fill:#C48D80;" d="M571.167,407.175l-6.745,12.231c-8.113-7.748-25.045-16.904-39.375-23.514
					c-9.874-4.551-18.516-7.897-22.214-8.764c-0.271-0.068-0.569-0.163-0.867-0.271c-3.264-1.355-7.87-6.136-12.502-11.852
					c-8.872-10.917-17.852-25.207-17.852-25.207c4.646-8.439,22.783-4.213,22.783-4.213s3.752,9.305,10.755,17.243
					c3.183,3.616,7.03,6.935,11.5,8.994c1.503,0.691,3.088,1.233,4.741,1.598c3.955,0.88,7.165,1.842,9.807,2.899
					c8.899,3.522,11.54,8.127,15.929,13.979C552.814,397.897,571.167,407.175,571.167,407.175z"/>
				<path style="opacity:0.3;fill:#C38D80;" d="M516.649,371.823c-2.194,1.788-6.244,5.404-9.36,10.145
					c-1.639,2.479-3.549,3.982-5.323,4.89c-3.264-1.355-7.87-6.136-12.502-11.852l15.685-12.177
					C508.332,366.445,512.179,369.764,516.649,371.823z"/>
				<path style="fill:#C54456;" d="M571.167,407.175l-6.745,12.231c-8.113-7.748-25.045-16.904-39.375-23.514
					c4.836-6.502,5.946-14.9,6.149-19.573c8.899,3.522,11.54,8.127,15.929,13.979C552.814,397.897,571.167,407.175,571.167,407.175z
					"/>
				<g>
					<path style="fill:#E8AE31;" d="M586.965,426.102c-0.254-1.148-0.573-2.261-0.965-3.345c-0.114-0.32-0.228-0.64-0.349-0.968
						c-3.675-9.292-3.617-8.283-2.633-13.161c1.614-7.98-1.583-8.516-1.583-8.516s-6.726,0.884-11.111,2.139
						c-2.101,0.603-3.659,1.289-3.693,2.014c-0.143,2.924,0.454,4.829-0.179,8.25c-0.829,4.581-4.72,5.767-4.72,5.767
						s1.568,3.211,5.691,4.146c0.507,0.12,1.121,0.61,1.784,1.355c0.67,0.767,1.396,1.795,2.092,2.982
						c2.096,3.527,4.022,8.402,4.009,11.53c0.006,0.211-0.003,0.406,0.018,0.603c0.289,7.76,6.967,8.668,6.967,8.668
						C587.6,444.983,588.982,434.81,586.965,426.102z"/>
					<g>
						<path style="fill:#5369A7;" d="M584.772,404.018l-0.147-0.651c-0.115-0.507-0.618-0.824-1.125-0.71l-0.651,0.147
							c-0.507,0.115-0.824,0.618-0.71,1.125l0.147,0.65c0.115,0.507,0.618,0.824,1.125,0.71l0.65-0.147
							C584.569,405.028,584.886,404.524,584.772,404.018z"/>
						<path style="fill:#5369A7;" d="M584.513,409.917l-0.147-0.65c-0.115-0.507-0.618-0.825-1.125-0.71l-0.651,0.147
							c-0.507,0.115-0.824,0.618-0.709,1.125l0.148,0.651c0.115,0.506,0.618,0.824,1.125,0.709l0.65-0.147
							C584.31,410.927,584.627,410.423,584.513,409.917z"/>
						<path style="fill:#5369A7;" d="M587.626,422.732l-0.147-0.651c-0.115-0.507-0.618-0.825-1.125-0.71l-0.651,0.147
							c-0.507,0.115-0.824,0.619-0.709,1.125l0.147,0.65c0.115,0.506,0.618,0.824,1.125,0.709l0.65-0.147
							C587.422,423.742,587.74,423.239,587.626,422.732z"/>
						<path style="fill:#5369A7;" d="M588.715,427.546l-0.147-0.651c-0.115-0.507-0.618-0.824-1.125-0.71l-0.651,0.148
							c-0.506,0.115-0.824,0.618-0.709,1.125l0.147,0.651c0.115,0.506,0.618,0.824,1.125,0.71l0.65-0.147
							C588.512,428.556,588.829,428.052,588.715,427.546z"/>
						<path style="fill:#5369A7;" d="M589.313,432.549l-0.147-0.65c-0.115-0.507-0.618-0.824-1.125-0.71l-0.65,0.147
							c-0.507,0.115-0.824,0.618-0.71,1.125l0.147,0.651c0.115,0.507,0.618,0.824,1.125,0.71l0.651-0.147
							C589.11,433.559,589.428,433.055,589.313,432.549z"/>
						<path style="fill:#5369A7;" d="M589.36,437.522l-0.148-0.651c-0.115-0.506-0.618-0.824-1.125-0.709l-0.65,0.147
							c-0.506,0.115-0.824,0.618-0.71,1.125l0.147,0.651c0.115,0.506,0.618,0.824,1.125,0.71l0.651-0.147
							C589.158,438.531,589.475,438.028,589.36,437.522z"/>
					</g>
					<path style="fill:#5369A7;" d="M583.237,421.787c-3.671-9.292-3.609-8.293-2.629-13.157c1.265-6.278-0.542-7.775-1.329-8.205
						l2.155-0.318c0,0,3.196,0.537,1.586,8.526c-0.98,4.864-1.042,3.865,2.629,13.157c3.684,9.303,2.857,22.749-3.357,25.767
						c0,0-0.654-0.139-1.622-0.494C586.146,443.316,586.756,430.673,583.237,421.787z"/>
					<path style="fill:#5369A7;" d="M575.32,438.899c1.056-1.783,2.348-5.277,0.132-9.743c-1.822-3.676-4.362-4.958-6.246-5.374
						c2.678,3.035,6.121,10.345,6.103,14.519C575.308,438.507,575.309,438.702,575.32,438.899z"/>
					<path style="fill:#5369A7;" d="M573.494,426.273c0,0-6.861-6.019-2.978-11.479c2.967-4.153,0.938-10.009-0.192-12.542
						c-2.101,0.603-3.659,1.289-3.693,2.014c-0.143,2.924,0.454,4.829-0.179,8.25c-0.829,4.581-4.72,5.767-4.72,5.767
						s1.568,3.211,5.691,4.146c0.507,0.12,1.121,0.61,1.784,1.355c0.67,0.767,1.396,1.795,2.092,2.982L573.494,426.273z"/>
				</g>
				<path style="fill:#C48D80;" d="M425.911,356.463c-0.379,0.271-0.582,0.42-0.582,0.42c2.425,2.126,4.226,4.361,5.608,6.921
					c2.574,4.809,3.616,10.741,4.158,19.112c0.84,12.841,6.867,35.556,6.867,35.556c-3.44,4.212-12.556,3.373-12.556,3.373
					c-0.122-8.791-11.269-31.587-19.505-49.656c-5.161-11.351-9.184-20.846-8.615-23.826c0.461-2.411,2.682-5.106,5.824-7.829
					c3.698-3.224,8.696-6.475,13.613-9.333c9.102-5.31,17.947-9.292,17.947-9.292c18.719-3.996,28.39,14.791,28.39,14.791
					c-8.98-1.815-30.598,12.407-38.644,17.988c0,0.013-0.014,0.013-0.014,0.013C427.279,355.474,426.425,356.084,425.911,356.463z"
					/>
				<path style="opacity:0.3;fill:#C38D80;" d="M441.894,339.03c0.149,0.257-9.292,10.944-13.477,15.658
					c0,0.013-0.014,0.013-0.014,0.013c-1.178,1.327-1.937,2.181-1.937,2.181s-0.203-0.149-0.555-0.42
					c-1.829-1.395-7.68-6.095-9.603-10.105c-1.842-3.847-7.179-5.364-9.197-5.824c3.698-3.224,8.696-6.475,13.613-9.333
					C429.798,334.466,441.772,338.814,441.894,339.03z"/>
				<path style="fill:#C54456;" d="M441.893,418.366c-3.44,4.213-12.556,3.373-12.556,3.373
					c-0.122-8.791-11.27-31.587-19.505-49.656c5.946-0.122,14.439-1.666,21.022-8.371l0.014-0.014
					c2.574,4.809,3.617,10.741,4.158,19.112C435.865,395.651,441.893,418.366,441.893,418.366z"/>
				<g>
					<path style="fill:#E8AE31;" d="M430.631,444.589c0.927-0.723,1.794-1.49,2.604-2.31c0.24-0.24,0.48-0.481,0.723-0.731
						c6.806-7.317,5.92-6.829,10.746-8.041c7.897-1.978,7.006-5.094,7.006-5.094s-3.693-5.691-6.713-9.109
						c-1.449-1.637-2.738-2.748-3.408-2.466c-2.701,1.129-4.164,2.488-7.524,3.39c-4.492,1.223-7.237-1.778-7.237-1.778
						s-2.224,2.797-1.293,6.921c0.11,0.509-0.068,1.274-0.455,2.193c-0.404,0.935-1.019,2.032-1.792,3.172
						c-2.281,3.409-5.853,7.247-8.682,8.581c-0.188,0.096-0.368,0.172-0.536,0.275c-6.88,3.601-4.826,10.02-4.826,10.02
						C413.862,453.289,423.639,450.158,430.631,444.589z"/>
					<g>
						<path style="fill:#5369A7;" d="M449.622,433.104l0.524-0.413c0.408-0.322,0.478-0.913,0.157-1.321l-0.413-0.524
							c-0.322-0.408-0.913-0.478-1.321-0.156l-0.524,0.413c-0.408,0.322-0.478,0.913-0.156,1.321l0.413,0.524
							C448.622,433.356,449.214,433.426,449.622,433.104z"/>
						<path style="fill:#5369A7;" d="M444.185,435.409l0.524-0.413c0.408-0.322,0.478-0.913,0.157-1.321l-0.413-0.524
							c-0.322-0.408-0.913-0.478-1.321-0.156l-0.524,0.413c-0.408,0.322-0.478,0.913-0.156,1.321l0.413,0.523
							C443.186,435.66,443.778,435.73,444.185,435.409z"/>
						<path style="fill:#5369A7;" d="M433.957,443.735l0.524-0.413c0.408-0.321,0.478-0.913,0.156-1.321l-0.413-0.524
							c-0.322-0.408-0.913-0.478-1.321-0.156l-0.524,0.413c-0.408,0.321-0.478,0.912-0.156,1.32l0.413,0.523
							C432.958,443.986,433.549,444.056,433.957,443.735z"/>
						<path style="fill:#5369A7;" d="M430.082,446.79l0.524-0.413c0.408-0.321,0.478-0.913,0.156-1.32l-0.414-0.524
							c-0.322-0.408-0.913-0.478-1.32-0.156l-0.524,0.413c-0.408,0.322-0.478,0.913-0.156,1.32l0.413,0.524
							C429.082,447.041,429.674,447.111,430.082,446.79z"/>
						<path style="fill:#5369A7;" d="M425.823,449.483l0.523-0.413c0.408-0.322,0.478-0.913,0.156-1.321l-0.413-0.524
							c-0.321-0.408-0.913-0.478-1.321-0.156l-0.524,0.413c-0.408,0.321-0.478,0.913-0.156,1.32l0.413,0.524
							C424.824,449.735,425.415,449.805,425.823,449.483z"/>
						<path style="fill:#5369A7;" d="M421.355,451.666l0.524-0.413c0.408-0.322,0.478-0.913,0.156-1.321l-0.413-0.524
							c-0.322-0.408-0.913-0.478-1.321-0.156l-0.524,0.413c-0.408,0.322-0.478,0.913-0.156,1.32l0.413,0.525
							C420.356,451.918,420.947,451.988,421.355,451.666z"/>
					</g>
					<path style="fill:#5369A7;" d="M432.922,439.366c6.807-7.313,5.932-6.827,10.744-8.036c6.212-1.56,6.785-3.836,6.834-4.731
						l1.214,1.809c0,0,0.89,3.116-7.013,5.101c-4.812,1.209-3.937,0.723-10.744,8.036c-6.812,7.329-19.304,12.37-24.703,8.06
						c0,0-0.156-0.65-0.252-1.677C414.741,451.259,426.415,446.367,432.922,439.366z"/>
					<path style="fill:#5369A7;" d="M414.069,439.585c2.064,0.186,5.773-0.152,8.851-4.074c2.534-3.226,2.598-6.071,2.163-7.951
						c-1.587,3.723-6.703,9.978-10.479,11.758C414.417,439.406,414.241,439.491,414.069,439.585z"/>
					<path style="fill:#5369A7;" d="M424.679,432.503c0,0,2.48-8.784,9.08-7.629c5.026,0.891,9.438-3.461,11.238-5.571
						c-1.449-1.637-2.738-2.748-3.408-2.466c-2.701,1.129-4.164,2.488-7.524,3.39c-4.492,1.223-7.237-1.778-7.237-1.778
						s-2.224,2.797-1.293,6.921c0.11,0.509-0.068,1.274-0.455,2.193c-0.404,0.935-1.019,2.032-1.792,3.172L424.679,432.503z"/>
				</g>
				<path style="fill:#434244;" d="M518.233,361.461c0,0-0.908,4.456-4.091,9.319c-0.921,1.436-2.045,2.885-3.413,4.28
					c-1.666,1.734-3.698,3.359-6.15,4.687c-11.175,6.095-20.995,4.741-20.995,4.741s-11.974-33.185-21.956-37.587
					c-4.565-2.005-23.988,13.369-23.988,13.369s-8.154-1.341-14.493-10.037c-0.569-0.772-1.111-1.598-1.639-2.492
					c-4.334-7.341-15.807-8.127-15.807-8.127c11.161-10.213,31.357-23.27,36.815-26.738c0.894-0.569,1.395-0.88,1.395-0.88
					s7.341-2.194,16.538-3.291l0.068-0.014c14.561-1.72,33.754-0.677,36.057,16.064c0.759,5.526,2.303,10.443,4.253,14.737
					C507.33,353.971,518.233,361.461,518.233,361.461z"/>
				<g>
					<path style="fill:#E8AE31;" d="M514.143,370.78c-0.921,1.436-2.045,2.885-3.413,4.28c-6.109-6.637-19.518-22.187-21.022-32.156
						c-1.707-11.283-8.384-22.607-8.452-22.728l4.66-2.763c0.298,0.488,7.287,12.326,9.143,24.679
						C496.223,349.731,507.208,363.168,514.143,370.78z"/>
				</g>
				<path style="opacity:0.2;fill:#434244;" d="M500.828,339.491l-0.014,0.013c0,0-4.754-9.197-6.109-10.809
					c-1.354-1.598-8.222,2.574-24.056,2.628c-15.821,0.054-28.133-18.448-28.133-18.448l17.934-4.172l0.068-0.014
					c14.561-1.72,33.754-0.677,36.057,16.064C497.333,330.28,498.878,335.197,500.828,339.491z"/>
				<path style="opacity:0.2;fill:#434244;" d="M483.585,384.487c0,0-11.974-33.185-21.956-37.587
					c-4.565-2.005-23.988,13.369-23.988,13.369s-8.154-1.341-14.493-10.037c0,0,8.059,3.942,16.186,0.908
					c8.127-3.061,18.787-5.933,18.882-9.156c0.081-3.21-10.917-10.66-10.917-10.66s17.487,7.111,20.426,11.175
					C470.65,346.561,483.301,374.166,483.585,384.487z"/>
			</g>
			<path style="fill:#C48D80;" d="M512.707,286.95c0,0,0.23-6.962-5.865-14.412c-6.095-7.45-7.68-16.389-7.68-16.389l-1.084-0.637
				l-9.4-5.513l-7.057-4.145c-6.786-6.854,2.181-14.656,2.181-14.656s6,3.481,12.014,7.138h0.014
				c2.127,1.273,4.24,2.587,6.109,3.766c3.129,1.977,5.54,3.603,6.028,4.226c1.571,2.032,13.179,37.804,13.179,37.804
				L512.707,286.95z"/>
			<path style="opacity:0.3;fill:#C38D80;" d="M502.088,248.414c-0.054,4.118-4.009,7.098-4.009,7.098l-9.4-5.513l0.935-12.367
				l6.204,0.704h0.014c2.127,1.273,4.24,2.587,6.109,3.766C502.033,243.945,502.115,246.329,502.088,248.414z"/>
			<path style="fill:#C48D80;" d="M514.16,282.591c0,0-3.393,2.275-4.18,4.712c-0.788,2.436-3.53,6.491-3.092,7.954
				c0.438,1.463,2.567,0.837,4.506-3.341c0,0,0.788,1.86,0.905,2.842c0.116,0.982-0.609,7.831-0.069,9.124
				c0.54,1.293,1.273,0.764,1.85-1.382c0.578-2.147,1.245-7.246,1.334-7.286c0.089-0.04,0.212,4.84,0.044,6.305
				c-0.168,1.466-0.187,4.376,0.31,5.011c0.497,0.635,1.317-0.528,1.602-2.224c0.286-1.696,0.948-7.811,1.027-8.274
				c0.079-0.463,0.908,7.139,1.024,7.801c0.116,0.662,1.256,1.589,1.685-0.492c0.429-2.081-0.286-7.884-0.286-7.884
				s1.312,3.929,1.799,4.462c0.487,0.532,1.303,1.162,1.402-0.058c0.099-1.22-0.981-6.008-1.025-6.345
				c-0.043-0.337,0.421-6.435-1.683-9.041C521.001,282.972,515.388,282.223,514.16,282.591z"/>
			<path style="fill:#475F93;" d="M466.399,220.491c0,0,9.506,1.381,19.665,8.953c10.159,7.572,15.069,8.249,15.069,8.249
				s0,16.762-7.788,19.81c0,0-11.852-9.482-16.593-6.603C472.011,253.778,456.723,224.114,466.399,220.491z"/>
			<path style="fill:#5369A7;" d="M500.178,317.887c0,0-16.647,13.328-32.454,10.389c-11.771-2.194-20.385-10.145-24.002-14.046
				c-0.027-0.027-0.041-0.027-0.041-0.027v-0.014c-1.219-1.314-1.869-2.167-1.869-2.167s7.206-6.136,7.274-25.072
				c0-1.747-0.054-3.603-0.176-5.594c-0.149-2.33-0.406-4.822-0.772-7.49c-5.743-4.334-10.971-10.375-12.448-15.509
				c-2.005-7.03,3.616-19.099,5.852-23.46c0.271-0.989,0.65-2.018,1.138-3.102c2.357-5.174,7.396-11.364,17.487-17.974
				c0,0,16.308,4.253,23.419,28.228c3.034,10.227,3.671,17.785,3.508,23.975c-0.054,2.221-0.217,4.267-0.393,6.204
				c-0.515,5.296-1.246,9.739-0.637,14.574c0.176,1.449,0.542,3.021,1.029,4.673c0,0,0.176,0.528,0.461,1.449
				C491.279,304.138,500.178,317.887,500.178,317.887z"/>
			<path style="opacity:0.3;fill:#5369A7;" d="M500.178,317.887c0,0-16.647,13.328-32.454,10.389
				c-11.771-2.194-20.385-10.145-24.002-14.046c0.921,0.704,16.217,11.328,25.79,11.811c14.073,0.71,25.412-7.951,25.712-9.493
				c0.79-4.064-6.018-18.314-7.671-23.624C491.279,304.138,500.178,317.887,500.178,317.887z"/>
			<g>
				<path style="fill:#C54456;" d="M487.093,266.023c-0.054,2.221-0.217,4.267-0.393,6.204c-2.601,1.097-5.838,2.072-9.454,2.276
					c-3.075,0.19-7.788,2.749-12.773,5.472c-4.863,2.668-10.199,5.567-15.387,6.976c0-1.747-0.054-3.603-0.176-5.594
					c4.226-1.354,8.777-3.847,12.962-6.136c5.54-3.021,10.768-5.879,15.062-6.122C481.093,268.854,484.723,267.31,487.093,266.023z"
					/>
			</g>
			<path style="opacity:0.3;fill:#5369A7;" d="M481.255,284.142c-10.565,21.157-39.443,27.88-39.443,27.88
				s10.403-8.872,6.326-38.156c-5.743-4.334-10.971-10.375-12.448-15.509c-2.005-7.03,3.616-19.099,5.852-23.46
				c0.271-0.989,0.957-2.034,1.445-3.118c8.831-0.46,19.347-0.336,21.582,2.698c3.901,5.283,6.082,34.201,3.156,44.522
				c-2.939,10.335-10.098,18.256-10.098,18.256C468.801,297.932,481.255,284.142,481.255,284.142z"/>
			<g>
				<path style="fill:#344975;" d="M435.693,267.492c0,0,5.334,7.958,11.881,8.522c6.547,0.564,17.665,1.298,17.665,1.298
					s-1.524-19.471-9.538-19.81C447.686,257.164,435.693,267.492,435.693,267.492z"/>
				<path style="fill:#C48D80;" d="M460.166,250.852c0,0-0.339,1.043-0.894,2.75c-1.368,4.199-4.064,12.394-6.447,18.936
					c-1.801,4.971-3.413,8.994-4.118,9.576c-2.005,1.693-55.765-2.763-55.765-2.763c-4.063-5.093,2.885-9.996,2.885-9.996
					s20.927,1.287,28.268,0c6.082-1.07,12.421-0.786,12.421-0.786l0.19-0.637l4.578-15.563l2.628-8.913
					C452.201,237.863,460.166,250.852,460.166,250.852z"/>
				<path style="opacity:0.3;fill:#C38D80;" d="M459.272,253.602c-1.368,4.199-4.064,12.394-6.447,18.936
					c-1.774-1.72-4.213-3.793-6.461-4.605c-4.077-1.477-9.441-0.068-9.658,0l4.578-15.563L459.272,253.602z"/>
				<g>
					<path style="fill:#C48D80;" d="M391.601,280.852c-4.859,1.932-7.145-1.228-7.145-1.228s-1.907-1.177-2.529-1.902
						c-0.622-0.725-0.313-3.138-0.313-3.138s-0.777-1.101-1.075-2.604c-0.298-1.503,0.508-3.243,0.508-3.243
						s-1.21-0.908-1.002-2.429c0.277-2.063,3.001-1.854,3.001-1.854l4.869,1.112c0,0,0.511-0.431,1.232-0.743
						c0.921-0.395,2.916-0.569,3.851,0.525c1.671,1.919,4.076,3.781,4.076,3.781C398.496,270.975,396.467,278.903,391.601,280.852z"
						/>
					<path style="opacity:0.3;fill:#C38D80;" d="M391.603,266.477l-3.687-0.911c0,0,0.511-0.431,1.232-0.743
						C390.063,265.193,391.603,266.477,391.603,266.477z"/>
				</g>
				<path style="fill:#5369A7;" d="M442.994,231.429c-3.388,9.143-0.613,20.148-2.475,22.857
					c-1.862,2.709-4.826,13.206-4.826,13.206s7.111-2.878,13.503-0.846c6.392,2.032,13.672,9.482,16.043,10.667
					c0,0-1.353-15.227,0-22.011C472.18,220.491,445.829,223.779,442.994,231.429z"/>
			</g>
		</g>
		<g>
			<g>
				<path style="fill:#344975;" d="M645.139,105.769c0,0-6.692-11.249-20.758-2.762c-13.428,8.102-6.161,20.125-6.161,20.125
					S643.97,119.374,645.139,105.769z"/>
				<path style="fill:#E5B7AC;" d="M645.923,113.199c-2.727,9.145-24.64,21.726-20.159,8.898l-0.318-7.194l5.171-18.078l3.299-2.119
					C638.522,103.199,645.923,113.199,645.923,113.199z"/>
				<path style="opacity:0.5;fill:#CA7E86;" d="M625.664,119.827l-0.218-4.924l5.171-18.078c0.03,0.086,0.036,0.187,0.085,0.266
					C634.893,103.789,630.807,115.105,625.664,119.827z"/>
			</g>
			<g>
				<path style="fill:#E5B7AC;" d="M558.543,145.186l-7.597,29.754c0,0-41.287-18.82-45.308-20.227
					c-2.251-0.788-7.043-0.631-12.392-1.771c-4.227-0.907-8.806-2.632-12.726-6.309c-8.85-8.273-29.652-15.754-29.652-15.754
					s-4.067-3.319-4.327-7.988c-0.262-4.682,5.216-5.452,5.216-5.452c4.816,2.589,26.558,10.251,46.331,15.875
					c12.191,3.465,23.637,6.17,29.897,6.409C544.407,140.377,558.543,145.186,558.543,145.186z"/>
				<path style="opacity:0.5;fill:#CA7E86;" d="M554.009,143.842l-13.673,26.281l-0.531,1.019c0,0,0.027-0.447,0.085-1.22
					c0.334-4.289,1.519-18.618,3.07-22.393c1.061-2.574,0.916-4.698,0.606-6.047L554.009,143.842z"/>
				<path style="fill:#C54456;" d="M498.087,133.313c-3.845,6.896-4.729,14.755-4.841,19.628c-4.227-0.907-8.806-2.632-12.726-6.309
					c-8.85-8.273-29.652-15.754-29.652-15.754s-4.067-3.319-4.327-7.988c-0.262-4.682,5.216-5.452,5.216-5.452
					C456.572,120.027,478.315,127.689,498.087,133.313z"/>
				<g>
					<path style="fill:#E8AE31;" d="M435.168,110.238c0.192,1.134,0.45,2.236,0.78,3.314c0.096,0.318,0.191,0.636,0.294,0.962
						c3.139,9.254,3.131,8.266,1.934,12.982c-1.963,7.715,1.133,8.395,1.133,8.395s6.612-0.537,10.956-1.55
						c2.082-0.487,3.636-1.082,3.705-1.788c0.281-2.849-0.209-4.739,0.575-8.05c1.032-4.434,4.889-5.404,4.889-5.404
						s-1.375-3.212-5.357-4.325c-0.49-0.141-1.065-0.65-1.676-1.41c-0.617-0.781-1.276-1.82-1.898-3.014
						c-1.876-3.546-3.521-8.401-3.356-11.456c0.004-0.206,0.022-0.397,0.012-0.589c0.094-7.593-6.384-8.804-6.384-8.804
						C435.464,91.767,433.62,101.635,435.168,110.238z"/>
					<g>
						<path style="fill:#5369A7;" d="M436.238,131.909l0.114,0.655c0.087,0.497,0.56,0.829,1.057,0.743l0.655-0.114
							c0.497-0.087,0.83-0.56,0.743-1.057l-0.114-0.655c-0.087-0.497-0.56-0.829-1.057-0.743l-0.655,0.114
							C436.484,130.939,436.152,131.412,436.238,131.909z"/>
						<path style="fill:#5369A7;" d="M436.777,126.16l0.114,0.655c0.087,0.497,0.56,0.83,1.057,0.743l0.655-0.114
							c0.497-0.087,0.829-0.56,0.742-1.057l-0.115-0.655c-0.087-0.497-0.56-0.829-1.057-0.742l-0.654,0.114
							C437.023,125.19,436.691,125.663,436.777,126.16z"/>
						<path style="fill:#5369A7;" d="M434.359,113.492l0.114,0.655c0.087,0.497,0.56,0.83,1.057,0.743l0.655-0.115
							c0.497-0.087,0.829-0.56,0.742-1.058l-0.115-0.655c-0.087-0.497-0.56-0.829-1.057-0.742l-0.654,0.114
							C434.605,112.522,434.272,112.995,434.359,113.492z"/>
						<path style="fill:#5369A7;" d="M433.528,108.738l0.114,0.655c0.087,0.497,0.56,0.829,1.057,0.743l0.655-0.115
							c0.497-0.087,0.829-0.56,0.742-1.057l-0.115-0.655c-0.087-0.497-0.56-0.829-1.057-0.743l-0.654,0.114
							C433.774,107.768,433.441,108.241,433.528,108.738z"/>
						<path style="fill:#5369A7;" d="M433.186,103.822l0.115,0.655c0.087,0.497,0.56,0.829,1.057,0.743l0.655-0.114
							c0.497-0.087,0.829-0.56,0.743-1.057l-0.114-0.655c-0.087-0.497-0.56-0.829-1.057-0.743l-0.655,0.114
							C433.432,102.852,433.099,103.325,433.186,103.822z"/>
						<path style="fill:#5369A7;" d="M433.382,98.963l0.115,0.655c0.087,0.497,0.56,0.829,1.057,0.742l0.655-0.114
							c0.497-0.087,0.829-0.56,0.743-1.057l-0.114-0.655c-0.087-0.497-0.56-0.829-1.057-0.743l-0.656,0.114
							C433.627,97.993,433.295,98.466,433.382,98.963z"/>
					</g>
					<path style="fill:#5369A7;" d="M438.6,114.634c3.135,9.254,3.123,8.275,1.93,12.978c-1.54,6.071,0.153,7.62,0.9,8.078
						l-2.12,0.206c0,0-3.095-0.68-1.136-8.404c1.193-4.703,1.205-3.724-1.93-12.978c-3.147-9.265-1.687-22.357,4.528-25.004
						c0,0,0.632,0.167,1.56,0.561C436.803,93.465,435.594,105.784,438.6,114.634z"/>
					<path style="fill:#5369A7;" d="M447.163,98.305c-1.118,1.691-2.549,5.04-0.601,9.509c1.601,3.679,4.02,5.054,5.84,5.552
						c-2.468-3.094-5.477-10.401-5.257-14.477C447.155,98.688,447.164,98.497,447.163,98.305z"/>
					<path style="fill:#5369A7;" d="M448.334,110.725c0,0,6.41,6.212,2.352,11.357c-3.1,3.912-1.402,9.73-0.421,12.259
						c2.082-0.487,3.636-1.082,3.705-1.788c0.281-2.849-0.209-4.739,0.575-8.05c1.032-4.434,4.889-5.404,4.889-5.404
						s-1.375-3.212-5.357-4.325c-0.49-0.141-1.065-0.65-1.676-1.41c-0.617-0.781-1.276-1.82-1.898-3.014L448.334,110.725z"/>
				</g>
				<path style="fill:#434244;" d="M604.015,177.018c-0.745,4.498-2.373,7.681-4.469,9.887c-1.422,1.515-3.072,2.581-4.818,3.286
					c-5.291,2.191-11.475,1.203-15.063,0.093c-1.647-0.517-2.746-1.049-2.975-1.323c-1.175-1.393-36.788-12.361-36.788-12.361
					c-1.751-17.617,11.686-39.758,11.686-39.758c5.419,6.334,21.65,12.397,21.65,12.397s4.425-1.792,7.411,0.227
					c1.655,1.106,3.674,1.956,5.151,2.498l0.071,0.03c1.162,0.415,1.959,0.631,1.959,0.631s0.055,0.005,0.165,0.029
					c0.485,0.102,2.039,0.445,4.026,1.259c4.006,1.664,9.724,5.258,11.703,12.619C604.508,169.418,604.706,172.876,604.015,177.018z
					"/>
				<path style="opacity:0.2;fill:#434244;" d="M599.546,186.905c-1.422,1.515-3.072,2.581-4.818,3.286
					c-5.291,2.191-11.475,1.203-15.063,0.093c-1.647-0.517-2.746-1.049-2.975-1.323c-1.175-1.393-36.788-12.361-36.788-12.361
					s12.283-0.051,18.447-3.72c7.541-4.488,15.271-4.309,15.271-4.309s-2.193-11.3,0.929-17.298
					c-1.594,7.861,3.904,15.823,10.461,23.801L599.546,186.905z"/>
			</g>
			<g>
				<g>
					<path style="fill:#5369A7;" d="M522.632,208.281c0,0-6.157,1.453-9.102-1.058c-2.436-2.077-6.784-1.874-9.766-2.312
						c-2.982-0.439-14.596-4.332-11.81-12.991c2.438-7.579,9.505-6.173,15.132-3.37c2.971,1.48,5.554,5.321,6.433,5.235
						c2.544-0.25,3.93,0.778,6.546,2.116C524.305,198.072,531.423,200.536,522.632,208.281z"/>
					<path style="fill:#E8AE31;" d="M523.839,207.937c0,0-4.51,1.59-8.273-0.759c-2.681-1.674-6.983-1.756-9.965-2.194
						c-2.982-0.439-14.596-4.332-11.81-12.991c2.438-7.579,9.505-6.173,15.132-3.37c2.971,1.48,5.213,4.979,6.092,4.892
						c2.544-0.25,7.114,0.981,9.308,3.271C527.62,200.226,532.631,200.191,523.839,207.937z"/>
					<path style="fill:#5369A7;" d="M518.67,204.04c0,0-5.508-0.563-6.87-2.706c-1.362-2.143-8.13-1.866-9.643-3.693
						c-1.513-1.827-1.315-3.314-0.788-4.422c0.527-1.107,2.165-2.403,3.665-1.979c1.5,0.424,7.246,5.424,8.691,4.74
						c2.636-1.247,7.039,1.494,7.405,2.891C521.496,200.269,520.397,204.052,518.67,204.04z"/>
					<path style="fill:#5369A7;" d="M512.088,201.701c0,0,2.517,4.362,7.222,4.437c4.706,0.075,6.585-0.583,6.585-0.583
						l-0.158-7.594c0,0-4.663-2.764-8.112-3.027c-1.73-0.132-4.317,1.105-4.317,1.105L512.088,201.701z"/>
				</g>
				<path style="fill:#C54456;" d="M547.717,182.389c-0.623,0.048-4.266-0.058-10.09,5.066c-4.855,4.271-11.572,8.573-17.53,8.784
					c-2.045,0.072-3.8,1.463-4.17,3.475l0,0c-0.432,2.348,1.154,4.594,3.513,4.961c3.094,0.481,7.224,1.054,10.171,1.2
					c6.106,0.302,20.132,4.909,24.573-1.237C558.625,198.492,560.323,181.416,547.717,182.389z"/>
				<path style="fill:#E5B7AC;" d="M540.823,190.271c0.545-3.212,2.767-5.895,5.706-7.301c2.076-0.993,5.102-2.552,7.502-4.243
					c6.051-4.263,26.342,1.236,26.342,1.236s7.801,11.737,2.91,19.347c-4.891,7.61-13.543,9.093-13.543,9.093l-12.32-2.688
					c0,0-9.174,1.09-14.617-7.229C540.762,195.366,540.435,192.56,540.823,190.271z"/>
				<path style="fill:#434244;" d="M622.653,177.957c0,0-9.608,5.147-9.735,14.381c-0.056,3.818-1.5,7.777-3.713,11.168
					c-1.2,1.83-2.625,3.507-4.184,4.908c-1.085,0.995-2.245,1.84-3.431,2.515c-1.539,0.916-3.152,1.52-4.726,1.757
					c-6.375,0.959-9.682-0.878-18.766,1.159c-0.792,0.173-1.581,0.278-2.345,0.286c-7.896,0.208-13.653-7.39-13.653-7.39
					c5.667,1.2,9.729,0.119,12.508-2.19c1.562-1.295,2.719-2.971,3.536-4.851c1.254-2.898,1.698-6.278,1.521-9.417
					c-0.054-1.253-0.211-2.477-0.462-3.606c-1.643-7.626-13.162-10.012-13.162-10.012l15.993-8.442l9.096-4.802
					c4.217,0.211,8.548,1.451,12.594,3.109C614.121,170.816,622.653,177.957,622.653,177.957z"/>
				<path style="fill:#E8AE31;" d="M609.206,203.507c-1.2,1.83-2.625,3.507-4.184,4.908c-5.261-0.644-14.004-1.341-16.948,0.577
					c-3.273,2.142-10.3-2.22-13.464-4.44c1.562-1.295,2.719-2.971,3.536-4.851c0,0,7.693,5.845,10.04,4.325
					C590.533,202.519,603.969,201.598,609.206,203.507z"/>
				<path style="opacity:0.2;fill:#434244;" d="M601.59,210.93c-1.539,0.916-3.152,1.52-4.726,1.757
					c-6.375,0.959-9.682-0.878-18.766,1.159c-0.792,0.173-1.581,0.278-2.345,0.286c0,0,14.175-5.821,13.946-15.9
					c0,0,1.317,8.132-1.628,10.761C585.602,211.202,595.114,212.467,601.59,210.93z"/>
				<path style="opacity:0.2;fill:#434244;" d="M622.653,177.957c0,0-9.608,5.147-9.735,14.381c-0.056,3.818-1.5,7.777-3.713,11.168
					c-0.745-4.328-3.044-7.751-3.044-7.751s-5.28-0.681-11.434-5.564c-2.893-2.288-5.965-5.501-8.787-9.999
					c-2.576-4.106-3.649-8.21-3.906-11.968c-0.612-9.15,3.765-16.26,3.765-16.26l0.071,0.03l2.125,0.66l4.026,1.259
					c4.006,1.664,9.724,5.258,11.703,12.619C614.121,170.816,622.653,177.957,622.653,177.957z"/>
			</g>
			<path style="fill:#344975;" d="M660.174,164.663c0,0,8.04-0.427,13.011-3.606c4.971-3.179,7.404-9.301,7.404-9.301
				s-8.258-6.415-14.632-4.199C659.584,149.774,660.174,164.663,660.174,164.663z"/>
			<path style="fill:#E5B7AC;" d="M704.811,201.32l-7.499,5.702c0.37,1.299-23.776-26.537-28.876-39.13
				c-0.47-1.163-1.593-2.832-3.074-4.742c-1.534-1.996-3.457-4.255-5.471-6.501c-5.631-6.316-11.896-12.563-11.896-12.563
				c-2.856-14.084,13.462-14.392,13.462-14.392s3.347,5.573,7.48,12.101c2.995,4.754,6.417,10.021,9.269,14.005
				c0.286,0.386,0.542,0.75,0.811,1.112C687.181,168.023,704.811,201.32,704.811,201.32z"/>
			<path style="opacity:0.5;fill:#CA7E86;" d="M678.206,155.799c-1.803-0.037-4.047,0.206-6.223,1.164
				c-3.119,1.381-5.394,4.272-6.621,6.187c-1.534-1.996-3.457-4.255-5.471-6.501l-4.37-8.276l13.417-6.579
				C671.932,146.548,675.353,151.815,678.206,155.799z"/>
			<path style="fill:#E5B7AC;" d="M698.859,196.558c0,0,7.332,3.049,10.344,3.417c2.441,1.002,9.084,0.816,10.301,1.336
				c1.217,0.52,5.404,8.153,4.982,9.389c-0.423,1.236-2.166,2.097-4.193-1.45c-2.027-3.547-3.466-4.006-3.466-4.006l-5.645-0.566
				c0,0,4.023,4.013,4.67,5.191c0.647,1.178,0.966,10.241,0.119,11.169c-0.847,0.927-3.103-0.519-3.094-2.656
				c0,0-0.234,2.067-0.99,2.392c-0.756,0.325-1.541-0.202-1.898-3.034c0,0-0.858,1.52-1.778,1.366
				c-1.867-0.572-1.686-6.514-2.01-6.964c-0.325-0.451-7.39,0.56-10.575-5.912C692.441,199.755,698.859,196.558,698.859,196.558z"/>
			<path style="fill:#E5B7AC;" d="M609.49,88.832l-8.227,7.461c0,0-1.686-2.027-3.834-5.245c-2.25-3.364-5.002-8.02-6.885-13.049
				c-3.68-9.842-7.915-23.464-10.131-25.974l5.569-4.352c0,0,9.987,17.438,13.711,21.063c1.226,1.197,2.714,3.777,4.133,6.702
				C606.753,81.423,609.49,88.832,609.49,88.832z"/>
			<path style="opacity:0.5;fill:#CA7E86;" d="M609.49,88.832l-8.227,7.461c0,0-1.686-2.027-3.834-5.245
				c0.69-2.277,2.145-6.52,4.033-8.32c2.64-2.516,2.364-7.29,2.364-7.29C606.753,81.423,609.49,88.832,609.49,88.832z"/>
			<path style="fill:#E5B7AC;" d="M582.007,53.747c0,0-3.715-0.809-5.232-2.649c-1.517-1.84-5.279-4.412-5.402-5.828
				c-0.122-1.417,1.935-1.604,5.044,1.351c0,0,0.045-1.88-0.191-2.77c-0.236-0.89-3.211-6.571-3.186-7.876
				c0.025-1.304,0.839-1.097,2.075,0.563c1.236,1.661,3.56,5.847,3.651,5.851c0.091,0.004-1.475-4.263-2.122-5.474
				c-0.648-1.211-1.661-3.725-1.449-4.444c0.213-0.72,1.32,0.007,2.149,1.377c0.828,1.371,3.497,6.438,3.724,6.812
				c0.227,0.374-1.661-6.492-1.787-7.104c-0.126-0.613,0.543-1.805,1.627-0.151c1.084,1.655,2.455,6.924,2.455,6.924
				s-0.211-3.851,0.028-4.479c0.239-0.628,0.729-1.452,1.233-0.429c0.503,1.023,1.21,5.537,1.288,5.844
				c0.078,0.307,2.57,5.427,1.642,8.403C587.797,51.076,583.195,53.645,582.007,53.747z"/>
			<path style="fill:#5369A7;" d="M680.588,151.752c0,0-15.352,3.436-20.418,12.917c0,0-0.015-0.011-0.034-0.048
				c-0.633-0.817-9.794-12.678-15.277-11.854c0,0-2.472,2.29-5.602,5.832c-1.284,1.454-2.695,3.128-4.072,4.945
				c-1.516,1.959-3.007,4.087-4.3,6.281c-0.683,1.162-1.362,2.445-2.018,3.791c-0.286,0.593-0.569,1.212-0.838,1.83
				c-0.042,0.073-0.07,0.158-0.112,0.232c-0.292,0.647-0.581,1.308-0.856,1.98c-0.018,0.056-0.037,0.113-0.07,0.158
				c-0.263,0.657-0.54,1.315-0.788,1.983c-0.148,0.357-0.282,0.713-0.416,1.069c-0.269,0.711-0.537,1.422-0.781,2.116
				c-0.392,1.052-0.746,2.084-1.081,3.073l-0.794,2.386c-0.16,0.453-0.295,0.889-0.42,1.311l-1.108,3.6
				c-0.053,0.182-0.108,0.352-0.15,0.519l-0.402,1.429c-0.035,0.126-0.053,0.182-0.053,0.182s-6.551-0.128-14.255-2.739
				c-5.683-1.935-11.999-5.224-16.747-10.841c-5.144-6.107-5.318-17.255-4.786-24.511c0.01-0.109,0.023-0.205,0.033-0.313
				l-0.002-0.013c0.009-0.028,0.005-0.054,0.003-0.068l-0.002-0.013c0.011-0.015,0.009-0.028,0.009-0.028
				c0.303-3.868,0.803-6.519,0.803-6.519s5.817-0.566,9.802-5.552c0.474-0.594,0.927-1.239,1.314-1.968
				c0.076-0.119,0.148-0.264,0.222-0.396c0.18-0.322,0.344-0.655,0.505-1.015c0.491-1.107,0.545-2.617,0.461-4.335
				c-0.078-1.678-0.279-3.553-0.318-5.411c0.001-0.081-0.005-0.12-0.005-0.12c-0.049-2.018,0.121-4.015,0.891-5.674
				c-0.002-0.013-0.002-0.013-0.002-0.013c0.102-0.216,0.216-0.435,0.333-0.64c2.772-4.669,5.845-5.909,5.845-5.909
				s1.113-14.721-7.961-20.828c0,0,0.338-18.266,15.282-16.383l13.022,32.715c0,0,4.159,1.789,11.7-0.781
				c7.552-2.585,7.997-8.366,7.997-8.366s3.403,5.323,7.302,7.527c3.912,2.201,10.563,7.801,14.989,20.106
				C671.856,145.688,680.588,151.752,680.588,151.752z"/>
			<path style="fill:#FFFFFF;" d="M631.617,143.131c-1.544,2.637-4.533,3.758-6.676,2.503c-2.143-1.255-2.628-4.41-1.084-7.047
				c1.544-2.637,4.533-3.758,6.676-2.503C632.677,137.339,633.162,140.494,631.617,143.131z"/>
			<path style="fill:#C54456;" d="M639.258,158.598l-4.072,4.945l-0.182,0.215c0,0-21.383-0.191-29.003-6.261
				c-4.587-3.656-8.082-8.965-10.146-12.612c0.768-0.961,1.459-2.071,2.041-3.379c0.491-1.107,0.545-2.617,0.461-4.335
				c0.172,0.698,2.655,10.519,11.346,15.235C618.704,157.317,639.258,158.598,639.258,158.598z"/>
			<path style="opacity:0.3;fill:#5369A7;" d="M660.137,164.62c-0.633-0.817-9.794-12.678-15.277-11.854c0,0-2.472,2.29-5.602,5.832
				c-1.284,1.454-2.695,3.128-4.072,4.945c-1.516,1.959-3.007,4.087-4.3,6.281c-0.683,1.162-1.362,2.445-2.018,3.791
				c-0.286,0.593-0.569,1.212-0.838,1.83c-0.042,0.073-0.07,0.158-0.112,0.232c-0.292,0.647-0.566,1.319-0.856,1.98
				c-0.018,0.056-0.037,0.113-0.07,0.158c-0.263,0.657-0.527,1.313-0.788,1.983c-0.148,0.357-0.282,0.713-0.416,1.069
				c-0.269,0.711-0.524,1.42-0.781,2.116c-0.392,1.052-0.746,2.084-1.081,3.073l-0.794,2.386c-0.147,0.451-0.295,0.889-0.42,1.311
				l-1.108,3.6c-0.053,0.182-0.108,0.352-0.15,0.519l-0.402,1.429c-0.035,0.126-0.053,0.182-0.053,0.182s-6.551-0.128-14.255-2.739
				c4.631,0.108,11.746,2.557,12.972-3.561c0.531-7.793,3.379-20.521,5.479-23.949c5.911-9.661,19.667-12.468,19.164-18.04
				c-0.331-3.625-3.22-9.723-3.557-10.451c0.505,0.595,5.049,6.014,8.632,8.789C653.11,148.4,659.546,163.635,660.137,164.62z"/>
			<g>
				<path style="fill:#E5B7AC;" d="M608.776,112.136c4.526,4.996,10.499,6.474,14.124,4.469c1.88-1.113,3.977-2.089,6.041-7.029
					c0.097-0.22,1.68-11.641,1.68-11.641s6.635-3.42,7.061-4.28c4.195-8.353-1.307-15.723-1.307-15.723
					c-0.9-1.29-1.847-2.39-2.791-3.33c-8.705-8.66-18.558-3.822-18.558-3.822c-8.111,2.936-13.875,14.924-10.856,26.244
					c1.815,6.054-1.924,8.439-1.335,9.538c0.607,1.137,2.875,1.279,3.569,2.405c0.612,1.004,1.278,1.923,1.985,2.746l0.009,0.009
					c0.101,0.12,0.203,0.222,0.304,0.342L608.776,112.136z"/>
				<g>
					<path style="fill:#434244;" d="M665.321,110.441c-6.422,2.254-16.689-1.178-18.961-7.007c-1.115-2.864-2.731-4.244-4.243-4.848
						c-0.271-0.107-0.54-0.201-0.805-0.268c-1.829-0.476-3.335,0.032-3.335,0.032l1.324-6.718c0,0,1.263,0.011,2.925,0.365
						c0.278,0.065,0.583,0.127,0.878,0.217c2.838,0.767,6.36,2.598,7.024,6.925c0.464,3.082,2.901,5.734,8.58,4.249
						c8.56-2.213,5.038-11.542,5.038-11.542s5.282,3.726,3.633,8.816c0,0,8.299-6.091,7.749-13.493
						C675.127,87.169,684.436,103.756,665.321,110.441z"/>
					<path style="fill:#E8AE31;" d="M642.545,95.637c-0.229,0.973-0.706,1.904-1.233,2.68c-1.829-0.476-3.335,0.032-3.335,0.032
						l1.324-6.718c0,0,1.263,0.011,2.925,0.365C642.589,92.988,642.839,94.292,642.545,95.637z"/>
				</g>
				<path style="fill:#434244;" d="M641.144,91.792c-3.618,7.936-2.582,10.859-2.582,10.859l-7.933-4.718l-5.768-2.677
					c0,0-7.612-5.518-8.602-14.657c0,0-9.312,0.572-11.906,3.132c0,0,0.964-12.494,14.405-14.484
					c0.014-0.008,0.027-0.015,0.049-0.01c0,0,0.014-0.008,0.021,0.006c1.522-0.237,3.221-0.323,5.09-0.236
					c1.167,0.055,2.259,0.171,3.286,0.36c0.382,0.07,0.744,0.134,1.099,0.22C641.631,72.616,643.673,86.243,641.144,91.792z"/>
				<path style="fill:#434244;" d="M610.603,97.236c-0.319-1.884-0.997-3.319-1.514-3.204l-2.523,0.65c0,0,0.514,0.641,2.033,0.467
					c-0.069,0.658-0.032,1.546,0.13,2.503c0.319,1.885,0.997,3.319,1.514,3.205C610.761,100.741,610.922,99.12,610.603,97.236z"/>
				<g>
					<path style="fill:#E5B7AC;" d="M625.039,97.489l0.729,1.874c5.02,0.557,8.135-4.82,8.212-8.653
						c0.036-1.932-0.7-3.467-2.347-3.677c-3.479-0.422-5.421,3.206-6.267,5.378C624.469,94.174,625.039,97.489,625.039,97.489z"/>
					<path style="fill:#CA7E86;" d="M630.725,90.516c-3.321,0.714-4.728,4.009-4.786,4.15c-0.059,0.143,0.008,0.298,0.151,0.346
						c0.05,0.017,0.103,0.018,0.154,0.007c0.092-0.021,0.174-0.086,0.213-0.179c0.009-0.02,0.535-1.25,1.662-2.324
						c1.265,0.456,0.998,2.447,0.995,2.468c-0.022,0.151,0.084,0.282,0.237,0.293c0.029,0.002,0.059,0,0.086-0.006
						c0.117-0.027,0.214-0.123,0.232-0.244c0.015-0.098,0.295-2.192-1.079-2.914c0.583-0.459,1.288-0.851,2.132-1.044
						c0.028-0.006,0.057-0.013,0.086-0.018c0.14-0.008,0.259-0.178,0.237-0.326C631.021,90.577,630.878,90.484,630.725,90.516z"/>
				</g>
				<g>
					<path style="fill:#434244;" d="M611.756,88.846c0.023-0.481-3.425-0.752-5.24,1.027c-1.145,1.122-1.757,2.631-1.82,4.49
						c-0.013,0.385,0.211,0.738,0.583,0.832c0.603,0.154,1.175-0.315,1.19-0.882c0.041-1.386,0.464-2.481,1.252-3.255
						C608.976,89.828,611.751,88.943,611.756,88.846z"/>
				</g>
				<g>
					<path style="fill:#CA7E86;" d="M608.702,112.062l0.074,0.074c0.019,0,0.039-0.001,0.058-0.001
						c2.573-0.384,3.607-2.477,3.66-2.563c0.033-0.086,0.188-0.307-0.039-0.415c-0.123-0.063-0.25-0.05-0.378,0.217
						c-0.001,0.019-0.941,1.949-3.309,2.299c-0.126,0.012-0.253,0.025-0.37,0.047C608.499,111.84,608.601,111.942,608.702,112.062z"
						/>
				</g>
				<g>
					<path style="fill:#CA7E86;" d="M615.869,103.22c-0.078-0.293,0.614-0.767,1.544-1.059c0.931-0.292,1.748-0.291,1.826,0.001
						c0.078,0.293-0.614,0.767-1.544,1.059C616.764,103.513,615.947,103.512,615.869,103.22z"/>
					<path style="fill:#CA7E86;" d="M615.005,101.649c0.16,0.254,0.961,0.032,1.789-0.496c0.828-0.528,1.369-1.163,1.209-1.417
						c-0.16-0.254-0.961-0.032-1.789,0.497C615.386,100.761,614.844,101.395,615.005,101.649z"/>
				</g>
			</g>
		</g>
		<g>
			<path style="fill:#475F93;" d="M126.817,75.279c0,0-11.772-0.155-15.485,11.492c-3.713,11.647,2.785,26.366,2.785,26.366
				S129.616,82.773,126.817,75.279z"/>
			<path style="fill:#5369A7;" d="M173.729,105.689c-0.495,2.327-1.436,4.542-2.661,6.708c-4.468,7.995-12.5,15.273-14.147,24.852
				c-1.299,7.55,1.758,18.973,1.758,18.973s-13.218,8.664-32.811-0.619c-19.592-9.283-28.491-3.069-28.491-3.069
				c-0.483-5.384,7.426-19.53,12.872-33.937c2.71-7.166,4.802-14.394,4.951-20.644c0.309-12.995,5.928-34.147,41.722-19.295
				C156.921,78.659,177.033,90.07,173.729,105.689z"/>
			<path style="opacity:0.3;fill:#5369A7;" d="M158.678,156.223c0,0-13.218,8.664-32.811-0.619
				c-19.592-9.283-28.491-3.069-28.491-3.069c-0.483-5.384,7.426-19.53,12.872-33.937c3.676,0.446,10.05,0.743,12.711-1.857
				c3.861-3.775,5.718-5.953,10.211-7.488c4.493-1.56,15.533-6.226,18.912-10.075c1.547-1.77,10.137,5.174,18.986,13.218
				c-4.468,7.995-12.5,15.273-14.147,24.852C155.621,144.8,158.678,156.223,158.678,156.223z"/>
			<g>
				<g>
					<path style="fill:#C48D80;" d="M131.93,100.983c0,0,7.708-4.57,14.175-9.856c4.797-3.902,8.913-8.197,8.722-11.299
						l-0.107-0.966l-1.181-11.132l-23.231-0.406l0.692,8.042l0.537,6.133c-0.537,0.74-1.265,2.649-1.79,5.047
						C128.72,91.246,128.482,97.809,131.93,100.983z"/>
					<path style="opacity:0.3;fill:#C38D80;" d="M129.746,86.545c1.718,3.233,5.226,4.665,7.314,5.119
						c3.341,0.74,6.371,0.394,9.044-0.537c4.797-3.902,8.913-8.197,8.722-11.299l-0.107-0.966l-2.72-3.114l-21-0.382l0.537,6.133
						C130.999,82.238,130.271,84.147,129.746,86.545z"/>
					<path style="fill:#C48D80;" d="M127.893,70.218c-0.049,1.064-0.025,2.092,0.074,3.094v0.012
						c0.755,8.651,6.349,15.025,13.02,15.533c0.173,0.025,0.359,0.037,0.545,0.025c5.879,0.161,11.844-4.258,15.458-11.139
						c0,0,0,0,0.012-0.012c1.77-3.379,2.97-7.352,3.317-11.671c1.064-13.391-5.879-20.087-14.864-20.793
						c-8.986-0.681-16.61,4.876-17.662,18.268C127.608,65.836,127.992,68.064,127.893,70.218z"/>
					<path style="fill:#434244;" d="M127.967,73.324c0.755,8.651,4.911,16.472,11.582,16.979c0.173,0.025,0.359,0.037,0.545,0.025
						c5.879,0.161,13.282-5.704,16.896-12.585c-0.433,0.421-6.238,5.891-8.985,5.52c0,0-0.693-9.06-6.461-9.679
						c-5.768-0.619-8.008,6.881-8.008,6.881S128.883,76.765,127.967,73.324z M135.544,81.593c0-3.712,2.292-6.812,5.338-6.812
						c3.046,0,4.718,3.332,4.718,7.044c0,3.712-2.282,7.061-5.327,7.061C137.228,88.886,135.544,85.305,135.544,81.593z"/>
					<g>
						<g>
							<g>
								<path style="fill:#B37061;" d="M132.888,69.733c-0.06,0.267-0.767,0.338-1.579,0.157c-0.813-0.181-1.423-0.545-1.364-0.813
									c0.06-0.267,0.767-0.338,1.579-0.156C132.337,69.101,132.948,69.465,132.888,69.733z"/>
								<path style="fill:#B37061;" d="M132.903,71.368c-0.017-0.274-0.705-0.453-1.536-0.4c-0.831,0.053-1.49,0.318-1.473,0.591
									c0.017,0.274,0.705,0.453,1.536,0.4C132.261,71.906,132.92,71.641,132.903,71.368z"/>
							</g>
							<g>
								<path style="fill:#B37061;" d="M154.183,73.853c0.06-0.267,0.766-0.338,1.579-0.157c0.813,0.181,1.423,0.545,1.363,0.813
									c-0.06,0.268-0.766,0.338-1.579,0.157C154.734,74.484,154.123,74.121,154.183,73.853z"/>
								<path style="fill:#B37061;" d="M154.168,72.218c0.017,0.274,0.705,0.453,1.536,0.4c0.831-0.053,1.49-0.318,1.473-0.591
									c-0.018-0.274-0.705-0.453-1.536-0.4C154.81,71.68,154.151,71.944,154.168,72.218z"/>
							</g>
						</g>
						<g>
							<g>
								<path style="fill:#B37061;" d="M141.473,74.151c-0.033-0.008-0.067-0.017-0.1-0.028c-0.408-0.131-1.306-0.708-0.842-3.231
									c0.76-4.131,1.935-6.244,1.985-6.331c0.076-0.136,0.249-0.186,0.386-0.107c0.136,0.077,0.184,0.25,0.108,0.386
									c-0.012,0.021-1.181,2.128-1.921,6.155c-0.313,1.7,0.031,2.451,0.457,2.588c0.622,0.208,1.831-0.663,2.656-2.421
									c0.067-0.141,0.237-0.201,0.378-0.136c0.142,0.066,0.203,0.236,0.136,0.378C143.848,73.253,142.502,74.384,141.473,74.151z"
									/>
							</g>
							<g>
								<g>
									<path style="fill:#434244;" d="M151.366,62.533c-0.973,0.076-1.888,0.612-2.719,1.592
										c-0.289,0.342-0.799,0.384-1.139,0.095c-0.339-0.289-0.38-0.8-0.09-1.141c1.128-1.327,2.423-2.054,3.849-2.161
										c2.245-0.167,4.382,2.177,4.086,2.513C155.295,63.499,152.912,62.412,151.366,62.533z"/>
								</g>
								<g>
									<path style="fill:#434244;" d="M132.329,59.957c-0.177-0.409,2.581-1.976,4.663-1.131c1.321,0.536,2.325,1.62,2.987,3.225
										c0.17,0.412-0.027,0.884-0.439,1.053c-0.412,0.17-0.885-0.027-1.053-0.439c-0.489-1.188-1.197-1.977-2.102-2.344
										C134.946,59.736,132.364,60.039,132.329,59.957z"/>
								</g>
							</g>
						</g>
					</g>
				</g>
				<g>
					<path style="fill:#C48D80;" d="M158.438,71.147c0,0,3.581-6.634,7.056-4.316c3.476,2.319-2.578,13.315-7.937,9.849
						L158.438,71.147z"/>
					<path style="fill:#B37061;" d="M163.808,69.872c-2.672-0.481-4.674,2.21-4.758,2.325c-0.086,0.117-0.081,0.291,0.011,0.388
						c0.032,0.034,0.071,0.055,0.112,0.061c0.074,0.012,0.154-0.021,0.21-0.098c0.012-0.016,0.761-1.02,1.909-1.661
						c0.806,0.887,0.028,2.717,0.019,2.736c-0.06,0.137-0.019,0.302,0.09,0.367c0.021,0.013,0.044,0.021,0.066,0.025
						c0.095,0.015,0.195-0.044,0.243-0.155c0.04-0.089,0.857-2.014,0.048-3.198c0.566-0.238,1.203-0.368,1.885-0.257
						c0.023,0.004,0.046,0.008,0.069,0.013c0.106,0.041,0.244-0.081,0.27-0.231C164.01,70.036,163.931,69.895,163.808,69.872z"/>
				</g>
				<g>
					<path style="fill:#C48D80;" d="M129.775,67.583c0,0-1.567-7.374-5.555-6.129c-3.987,1.246-1.276,13.503,4.842,11.685
						L129.775,67.583z"/>
					<path style="fill:#B37061;" d="M124.982,64.848c2.699,0.291,3.862,3.436,3.911,3.571c0.049,0.137-0.004,0.302-0.12,0.369
						c-0.041,0.024-0.084,0.032-0.125,0.027c-0.074-0.009-0.142-0.064-0.174-0.153c-0.007-0.019-0.443-1.193-1.364-2.131
						c-1.023,0.624-0.792,2.599-0.789,2.62c0.019,0.149-0.066,0.295-0.19,0.326c-0.024,0.006-0.048,0.008-0.07,0.005
						c-0.096-0.012-0.174-0.097-0.189-0.217c-0.013-0.097-0.255-2.174,0.854-3.082c-0.476-0.388-1.051-0.692-1.736-0.778
						c-0.023-0.003-0.046-0.005-0.07-0.008c-0.114,0.01-0.212-0.146-0.195-0.298C124.743,64.948,124.858,64.835,124.982,64.848z"/>
				</g>
				<path style="fill:#434244;" d="M149.945,67.915c-0.266,1.791-0.082,3.302,0.411,3.375c0.493,0.073,1.109-1.319,1.375-3.11
					c0.266-1.791,0.082-3.302-0.412-3.375C150.827,64.732,150.211,66.124,149.945,67.915z"/>
				<path style="fill:#434244;" d="M135.822,65.921c-0.266,1.791-0.082,3.302,0.411,3.375c0.493,0.073,1.109-1.319,1.375-3.11
					c0.266-1.791,0.082-3.302-0.411-3.375C136.704,62.738,136.088,64.13,135.822,65.921z"/>
				<path style="fill:#434244;" d="M127.735,59.628c-0.018,0.573-0.016,1.104-0.002,1.549c0.013,1.108,0.084,1.782,0.084,1.782
					l0.009,0.149l0.082,2.564l0.614,0.26l1.158-8.579l4.082-5.647c8.023-2.592,21.603,2.516,23.033,3.078
					c0.085,0.026,0.126,0.047,0.126,0.047c-0.021,2.019,1.607,7.123,1.607,7.123l-0.099,1.389l-0.102,1.521l-0.445,6.256
					l0.557,0.031l1.527-2.243l0.018-0.027c0,0,0.644-1.492,1.274-3.753c0.12-0.456,0.247-0.955,0.377-1.484
					c0.864-3.779,1.366-8.92-0.719-12.935c-0.55-1.063-1.3-2.064-2.26-2.932c-7.502-6.737-17.947-7.306-25.025-2.638
					C128.819,48.309,127.861,55.41,127.735,59.628z"/>
				<g>
					<path style="fill:#A34855;" d="M138.666,77.017c-0.13,0.164-0.26,0.329-0.386,0.527c-0.243,0.312-0.444,0.694-0.625,1.093
						c-0.253,0.616-0.447,1.285-0.582,2.006c-0.081,0.521-0.109,1.027-0.081,1.551c-0.018,0.202-0.014,0.456,0.023,0.677
						c0.183,2.101,1.175,3.775,2.575,4.129c1.6,0.378,3.216-1.136,3.947-3.509c0.112-0.368,0.221-0.77,0.275-1.19
						c0.014-0.05,0.027-0.1,0.024-0.134c0.099-0.723,0.132-1.38,0.076-2.025l-0.02-0.018c-0.038-0.44-0.113-0.882-0.201-1.274
						c-0.054-0.205-0.125-0.393-0.195-0.581c-0.449-1.216-1.209-2.087-2.166-2.324C140.391,75.726,139.454,76.132,138.666,77.017z"
						/>
					<path style="fill:#FFFFFF;" d="M138.666,77.017c-0.13,0.164-0.26,0.329-0.386,0.527c1.984-0.183,3.915,0.274,5.216,0.726
						c-0.449-1.216-1.209-2.087-2.166-2.324C140.391,75.726,139.454,76.132,138.666,77.017z"/>
					<path style="fill:#AC5C64;" d="M136.99,82.194c-0.018,0.202-0.014,0.456,0.023,0.677c0.183,2.101,1.175,3.775,2.575,4.129
						c1.6,0.378,3.216-1.136,3.947-3.509c-0.743-0.668-1.781-1.415-2.955-1.659C139.259,81.549,137.881,81.871,136.99,82.194z"/>
				</g>
			</g>
			<g>
				<path style="fill:#344975;" d="M129.527,114.147c0,0-4.956,7.117-0.45,11.552c4.506,4.435,13.796,8.664,13.796,8.664
					l5.871-14.439l-3.143-9.798L129.527,114.147z"/>
				<path style="fill:#C48D80;" d="M155.683,120.232c0,0-1.324,0.755-3.366,1.918c-2.97,1.696-7.451,4.258-11.684,6.696
					c-4.975,2.847-9.617,5.508-11.102,6.399c-3.651,2.166-24.853-0.619-34.902-3.564c-10.062-2.933-12.723-3.404-12.723-3.404
					l0.619-8.738l41.957,0.693l5.05-2.698l17.278-9.245l2.277-1.213C149.086,107.075,158.419,111.407,155.683,120.232z"/>
				<path style="opacity:0.3;fill:#C38D80;" d="M152.317,122.15c-2.97,1.696-7.451,4.258-11.684,6.696
					c-0.656-1.906-1.349-4.035-1.993-6.139c-1.893-6.188-9.109-5.173-9.109-5.173l17.278-9.245L152.317,122.15z"/>
				<path style="fill:#C48D80;" d="M82.733,119.547c0,0-7.019,0.8-9.804,0.294c-2.452,0.218-8.321-1.786-9.549-1.659
					c-1.229,0.127-7.071,5.77-7.037,6.988s1.35,2.468,4.138-0.132c2.787-2.6,4.197-2.611,4.197-2.611l5.187,1.057
					c0,0-4.695,2.463-5.597,3.333c-0.902,0.87-3.694,8.859-3.196,9.92c0.499,1.061,2.909,0.396,3.492-1.511
					c0,0-0.364,1.907,0.22,2.406c0.584,0.499,1.429,0.246,2.53-2.178c0,0,0.344,1.592,1.206,1.709
					c1.822,0.007,3.304-5.338,3.718-5.65c0.414-0.311,6.43,2.544,11.059-2.343C87.926,124.284,82.733,119.547,82.733,119.547z"/>
				<path style="fill:#5369A7;" d="M173.01,96.17c0,0,2.472,19.833-12.843,25.815c-15.314,5.982-17.295,12.377-17.295,12.377
					s1.85-14-4.067-18.036c-5.917-4.036-9.278-2.18-9.278-2.18s15.477-8.87,20.455-13.202
					C154.96,96.613,167.956,86.032,173.01,96.17z"/>
			</g>
			<g>
				<g>
					<path style="fill:#5369A7;" d="M77.377,271.608c0,0-6.351,4.354-6.826,8.808c-0.392,3.684-4.219,7.367-6.381,10.32
						c-2.162,2.953-8.837,16.074,0.434,20.023c8.115,3.457,12.946-3.812,15.447-10.847c1.321-3.715,0.425-8.833,1.235-9.544
						c2.344-2.057,2.69-4.04,3.824-7.336C86.951,277.686,90.98,269.587,77.377,271.608z"/>
					<path style="fill:#E8AE31;" d="M66.097,309.081c-9.265-3.941-2.597-17.067-0.437-20.018c2.161-2.951,5.725-6.806,6.643-10.405
						c1.295-5.055,6.365-7.857,6.365-7.857c1.648-0.298,3.008-0.386,4.138-0.263c3.928,0.393,5.007,3.15,5.162,6.87
						c0.023,0.386,0.034,0.8,0.027,1.213c-0.015,3.636-2.883,8.568-5.228,10.636c-0.808,0.707,0.101,5.266-1.226,8.983
						C79.038,305.275,74.218,312.541,66.097,309.081z"/>
					<path style="fill:#5369A7;" d="M77.43,278.238c0,0-4.192,5.272-3.625,8.059c0.566,2.786-5.36,8.548-5.174,11.233
						c0.186,2.685,1.542,3.612,2.872,3.966c1.33,0.355,3.746-0.131,4.672-1.766c0.925-1.636,1.77-10.402,3.534-11.17
						c3.219-1.401,4.738-7.311,3.929-8.667C82.827,278.537,78.876,276.707,77.43,278.238z"/>
					<path style="fill:#5369A7;" d="M79.308,288.893l-5.557-3.124c0,0-1.373-5.444,2.542-9.64c3.905-4.207,6.022-5.38,6.022-5.38
						c0.167-0.08,0.333-0.14,0.49-0.211c3.928,0.393,5.007,3.15,5.162,6.87c-0.585,1.832-2.075,6.014-4.14,8.488
						C82.482,287.523,79.308,288.893,79.308,288.893z"/>
				</g>
				<path style="fill:#C48D80;" d="M137.824,197.896c0,0-1.238,2.747-3.032,6.782c-2.921,6.572-7.315,16.572-10.198,23.639
					c-1.151,2.847-2.067,5.223-2.537,6.708c-0.99,3.106-8.404,12.896-16.684,23.206c-2.228,2.785-4.431,5.495-6.547,8.057
					c-0.359,0.445-0.73,0.891-1.089,1.324c-0.718,0.879-1.436,1.745-2.129,2.587c-0.792,0.978-1.572,1.918-2.327,2.822
					c-1.956,2.339-3.787,4.53-5.421,6.473c-0.025,0.037-0.049,0.074-0.074,0.099c-0.644,0.755-1.25,1.473-1.807,2.141
					c-0.359,0.421-0.693,0.817-0.99,1.163c-0.149,0.173-0.285,0.334-0.421,0.495c-0.26,0.31-0.495,0.582-0.693,0.805
					c-0.247,0.297-0.482,0.582-0.705,0.842c-0.025,0.025-0.037,0.037-0.037,0.037s-7.872,3.008-8.008-4.852
					c0-0.198,0-0.421,0.012-0.643c0,0,10.013-20.013,13.949-32.118c0.223-0.668,0.421-1.312,0.594-1.918
					c3.404-11.758,11.857-15.471,11.857-15.471l3.119-9.939l6.151-19.58l0.842-2.661
					C111.647,197.896,124.704,180.259,137.824,197.896z"/>
				<path style="opacity:0.3;fill:#C38D80;" d="M134.791,204.678l-23.986-4.121l-6.151,19.58c2.141,2.698,6.547,7.488,11.188,7.933
					c2.995,0.285,6.188,0.309,8.75,0.248L134.791,204.678z"/>
				<path style="fill:#C54456;" d="M75.118,280.225c0.136,7.859,8.008,4.852,8.008,4.852s0.012-0.012,0.037-0.037
					c0.074-0.099,0.322-0.384,0.706-0.842c0.198-0.223,0.433-0.495,0.693-0.805c0.136-0.161,0.272-0.322,0.421-0.495
					c0.297-0.347,0.631-0.743,0.99-1.163c0.532-0.631,1.139-1.349,1.807-2.141c0.025-0.025,0.05-0.062,0.074-0.099
					c1.535-1.819,3.379-4.01,5.421-6.473c0.755-0.903,1.535-1.844,2.327-2.822c0.693-0.842,1.411-1.708,2.129-2.587
					c0.359-0.433,0.73-0.879,1.089-1.324c2.116-2.562,4.319-5.272,6.547-8.057c-2.599-0.285-5.446-0.916-7.958-2.166
					c-3.267-1.646-6.188-5.272-8.329-8.602c-3.936,12.104-13.949,32.118-13.949,32.118
					C75.118,279.805,75.118,280.027,75.118,280.225z"/>
				<path style="fill:#434244;" d="M151.339,168.402c0,0-4.01,5.322-6.077,12.76c-2.055,7.451-10.099,36.944-14.642,43.343
					c0,0-11.634,6.56-29.58-10.149c0,0,0.941-1.77,2.252-4.629h0.012c2.785-6.065,7.29-17.018,8.131-26.276
					c0.866-9.518,7.265-24.964,16.313-31.858c3.911-2.983,8.317-4.369,12.983-2.995
					C156.203,153.129,151.339,168.402,151.339,168.402z"/>
				<path style="opacity:0.2;fill:#434244;" d="M153.88,171.595c0,0-16.061-5.748-24.584-1.102
					c-4.992,2.722-8.503,5.297-10.198,10.471c-1.708,5.174-9.307,26.338-15.793,28.764c2.785-6.065,7.29-17.018,8.131-26.276
					c0.866-9.518,7.265-24.964,16.313-31.858C134.284,153.092,153.831,165.246,153.88,171.595z"/>
			</g>
			<g>
				<path style="fill:#353436;" d="M141.759,133.537c2.711,0.497,5.329,2.322,7.637,4.542c0,0,2.995,24.234-20.319,28.875
					c-23.314,4.641,4.327-33.005,4.327-33.005L141.759,133.537z"/>
				<path style="fill:#C48D80;" d="M170.746,172.672l-13.825,10.78c0,0-9.233-16.498-14.641-19.444
					c-1.225-0.656-2.624-1.337-4.121-2.079c-1.213-0.594-2.488-1.225-3.75-1.894c-4.06-2.141-8.07-4.703-10.075-8.082
					c-2.834-4.765,5.842-17.327,16.597-17.513h0.012c2.178-0.05,4.431,0.421,6.708,1.572l5.223,8.292L170.746,172.672z"/>
				<path style="opacity:0.3;fill:#C38D80;" d="M134.63,159.899l-0.223,0.136c-4.06-2.141-8.07-4.703-10.075-8.082
					c-2.834-4.765,5.842-17.327,16.597-17.513C129.704,140.703,134.63,159.899,134.63,159.899z"/>
				<path style="fill:#C54456;" d="M138.153,161.929c1.498,0.742,2.896,1.423,4.122,2.079c5.409,2.946,14.642,19.444,14.642,19.444
					l13.825-10.78l-17.872-28.367C151.342,140.189,134.384,141.891,138.153,161.929z"/>
				<g>
					<path style="fill:#E8AE31;" d="M152.289,189.575c0.361,3.177,1.194,6.026,2.715,7.243c4.224,3.379,57.752-24.342,50.43-39.267
						c0,0-4.889-1.386-12.188,0.406c-3.21,0.788-9.507,3.526-14.047,5.948c0,0-0.023,0.011-0.056,0.034
						c-1.048,0.552-1.994,1.104-2.794,1.6c-6.691,4.19-6.567,1.25-9.417,1.431c-6.432,0.383-14.024,10.622-14.26,11.67
						c-0.158,0.71-0.293,1.577-0.394,2.557C152.019,183.638,151.963,186.736,152.289,189.575z"/>
					<path style="fill:#5369A7;" d="M152.278,181.194c8.279-0.8,7.985-7.706,10.37-9.535c3.062-2.349,8.319,0.93,10.499-1.786
						c1.971-2.455,5.5-5.61,5.995-5.936c-1.048,0.552-1.994,1.104-2.794,1.6c-6.691,4.19-6.567,1.25-9.417,1.431
						c-6.432,0.383-14.024,10.622-14.26,11.67C152.515,179.347,152.38,180.214,152.278,181.194z"/>
					<path style="fill:#5369A7;" d="M152.289,189.575c0.361,3.177,1.194,6.026,2.715,7.243c4.224,3.379,57.752-24.342,50.43-39.267
						c0,0-4.889-1.386-12.188,0.406c-6.094,2.872-12.301,7.468-14.148,9.665c-3.74,4.438-5.294,10.802-11.332,12.616
						C163.768,181.453,154.711,184.359,152.289,189.575z"/>
					<path style="fill:#E3852F;" d="M201.992,178.592c-1.048,1.329-2.242,2.512-3.56,3.481c-10.938,8.02-14.182,3.886-18.372,8.426
						c-3.999,4.314-13.427,15.714-21.785,10.476c-0.011-0.011-0.034-0.023-0.045-0.034c-0.394-0.248-0.777-0.529-1.16-0.845
						c-9.879-8.268,6.173-16.198,12.21-18.023c6.026-1.825,7.581-8.178,11.32-12.627c3.323-3.942,20.591-15.533,26.212-11.208
						C209.505,160.31,207.714,171.439,201.992,178.592z"/>
					<path style="opacity:0.5;fill:#CF8F55;" d="M201.992,178.592c-1.048,1.329-2.242,2.512-3.56,3.481
						c-10.938,8.02-14.182,3.886-18.372,8.426c-3.999,4.314-13.427,15.714-21.785,10.476c-0.011-0.011-0.034-0.023-0.045-0.034
						c-9.192-7.761,5.846-15.184,11.501-16.897c5.666-1.712,7.119-7.682,10.633-11.85c3.109-3.695,19.33-14.576,24.601-10.521
						C207.23,163.419,206.115,171.991,201.992,178.592z"/>
					<path style="fill:#5369A7;" d="M206.121,163.937c0,1.167-0.946,2.113-2.113,2.113c-1.167,0-2.113-0.946-2.113-2.113
						c0-1.167,0.946-2.113,2.113-2.113C205.176,161.824,206.121,162.77,206.121,163.937z"/>
					<path style="fill:#5369A7;" d="M191.052,168.162c0,1.167-0.946,2.113-2.113,2.113c-1.167,0-2.113-0.946-2.113-2.113
						c0-1.167,0.946-2.113,2.113-2.113C190.106,166.05,191.052,166.995,191.052,168.162z"/>
					<path style="fill:#5369A7;" d="M186.827,179.807c0,1.167-0.946,2.113-2.113,2.113c-1.167,0-2.113-0.946-2.113-2.113
						c0-1.167,0.946-2.113,2.113-2.113C185.881,177.695,186.827,178.641,186.827,179.807z"/>
					<path style="fill:#5369A7;" d="M163.478,191.933c0,1.167-0.946,2.113-2.113,2.113c-1.167,0-2.113-0.946-2.113-2.113
						c0-1.167,0.946-2.113,2.113-2.113C162.532,189.82,163.478,190.766,163.478,191.933z"/>
					<path style="fill:#5369A7;" d="M169.936,200.569c0,1.167-0.946,2.113-2.113,2.113c-1.167,0-2.113-0.946-2.113-2.113
						c0-1.167,0.946-2.113,2.113-2.113C168.99,198.456,169.936,199.402,169.936,200.569z"/>
					<path style="fill:#5369A7;" d="M200.123,180.812c0,1.167-0.946,2.113-2.113,2.113c-1.167,0-2.113-0.946-2.113-2.113
						c0-1.167,0.946-2.113,2.113-2.113C199.177,178.699,200.123,179.645,200.123,180.812z"/>
				</g>
				<path style="fill:#434244;" d="M149.39,138.07c-0.33-0.31-7.9-7.32-13.7-1.3h-0.01c-1.41,1.46-2.71,3.69-3.78,6.96
					c-1.63,4.98-2.72,12.39-2.83,23.22c0,0-5.88,1.45-8.35,6.6c-2.48,5.16-9.28,9.9-9.28,9.9s-11.39-6.23-15.37-15.19
					c-0.6-1.35-1.03-2.76-1.22-4.23c-0.05-0.36-0.09-0.74-0.11-1.11c-0.04-0.43-0.04-0.88-0.01-1.33c0.04-0.77,0.12-1.51,0.23-2.22
					c0.12-0.73,0.27-1.44,0.46-2.12c2.55-9.38,11.1-13.75,11.1-13.75c7.39-6.15,20.33-11.49,25.96-11.61
					C141.34,131.68,146.7,133.95,149.39,138.07z"/>
				<path style="fill:#E8AE31;" d="M135.68,136.77c-1.41,1.46-2.71,3.69-3.78,6.96c-4.49,1.57-14.92,4.6-21.94,13.93
					c-4.61,6.12-11.36,7.02-15.11,6.37c-0.05-0.36-0.09-0.74-0.11-1.11c-0.04-0.43-0.04-0.88-0.01-1.33
					c0.04-0.77,0.12-1.51,0.23-2.22c0.12-0.73,0.27-1.44,0.46-2.12c2.41,0.7,6.65,0.57,12.7-5.66
					C116.68,142.8,129.92,138.71,135.68,136.77z"/>
			</g>
		</g>
	</g>
	<g>
		<g>
			<path style="fill:#F9E1A2;" d="M246.944,124.087c-0.034,1.612-0.253,3.238-0.662,4.87c-0.663,2.65-1.762,5.075-3.217,7.206
				c-1.81,2.677-4.167,4.897-6.871,6.55c-3.729,2.288-8.121,3.497-12.663,3.313c-0.43-0.014-0.854-0.048-1.284-0.089
				c-1.086-0.109-2.179-0.294-3.272-0.567c-1.509-0.376-2.944-0.895-4.296-1.55c-4.221-2.015-7.609-5.266-9.835-9.18
				c-1.51-2.657-2.486-5.615-2.814-8.709c-0.28-2.568-0.123-5.218,0.54-7.868c0.41-1.632,0.984-3.176,1.701-4.617
				c1.598-3.197,3.9-5.908,6.666-7.971c3.934-2.944,8.804-4.583,13.879-4.487c1.674,0.027,3.367,0.246,5.061,0.669
				c1.687,0.417,3.279,1.018,4.761,1.776c4.774,2.418,8.442,6.434,10.491,11.195C246.384,117.564,247.033,120.781,246.944,124.087z"
				/>
			<path style="opacity:0.7;fill:#F9E1A2;" d="M246.281,128.961c-3.009,12.07-15.237,19.413-27.307,16.404
				c-6.683-1.665-11.917-6.157-14.749-11.883c2.641,2.363,5.884,4.138,9.563,5.057c12.07,3.009,24.293-4.339,27.302-16.409
				c1.344-5.387,0.622-10.802-1.655-15.419C245.459,112.103,248.372,120.57,246.281,128.961z"/>
			<g>
				<g>
					<g>
						<path style="fill:none;stroke:#E2BC66;stroke-width:0.7852;stroke-miterlimit:10;" d="M210.85,108.575
							c0,0,17.967,1.368,33.419,8.499"/>
						
							<line style="fill:none;stroke:#E2BC66;stroke-width:0.7852;stroke-miterlimit:10;" x1="206.854" y1="113.585" x2="209.282" y2="121.846"/>
						
							<line style="fill:none;stroke:#E2BC66;stroke-width:0.7852;stroke-miterlimit:10;" x1="222.273" y1="116.113" x2="216.478" y2="123.266"/>
						
							<line style="fill:none;stroke:#E2BC66;stroke-width:0.7852;stroke-miterlimit:10;" x1="229.193" y1="117.838" x2="231.795" y2="128.096"/>
						
							<line style="fill:none;stroke:#E2BC66;stroke-width:0.7852;stroke-miterlimit:10;" x1="245.646" y1="123.255" x2="237.985" y2="129.639"/>
						<polyline style="fill:none;stroke:#E2BC66;stroke-width:0.7852;stroke-miterlimit:10;" points="224.814,100.987 
							225.313,103.814 225.518,104.982 						"/>
						<polyline style="fill:none;stroke:#E2BC66;stroke-width:0.7852;stroke-miterlimit:10;" points="234.636,103.432 
							232.758,105.679 231.993,106.594 						"/>
						<polyline style="fill:none;stroke:#E2BC66;stroke-width:0.7852;stroke-miterlimit:10;" points="202.028,125.931 
							203.811,126.375 218.646,130.077 226.283,131.982 241.125,135.677 243.065,136.162 						"/>
						<polyline style="fill:none;stroke:#E2BC66;stroke-width:0.7852;stroke-miterlimit:10;" points="204.843,134.639 
							205.901,133.779 206.83,133.027 						"/>
						<path style="fill:none;stroke:#E2BC66;stroke-width:0.7852;stroke-miterlimit:10;" d="M215.857,143.746
							c0.166-0.262-2.625-9.343-2.625-9.343l0.319,1.283"/>
						
							<line style="fill:none;stroke:#E2BC66;stroke-width:0.7852;stroke-miterlimit:10;" x1="229.231" y1="138.381" x2="222.166" y2="146.027"/>
						<polyline style="fill:none;stroke:#E2BC66;stroke-width:0.7852;stroke-miterlimit:10;" points="236.193,142.713 
							236.029,141.285 235.879,140.021 						"/>
					</g>
					<g>
						<polygon style="fill:#D35B30;" points="232.987,105.732 229.749,104.925 228.479,104.608 225.241,103.801 219.883,109.607 
							221.948,116.74 225.25,117.563 226.52,117.88 229.821,118.703 234.993,113.374 						"/>
						<path style="fill:#D35B30;" d="M223.53,146.025c-0.43-0.014-0.854-0.048-1.284-0.089c-1.086-0.109-2.179-0.294-3.272-0.567
							c-1.509-0.376-2.944-0.895-4.296-1.55l0.806-0.874l0.246,0.062l2.992,0.744l1.27,0.314l3.238,0.806L223.53,146.025z"/>
						<path style="fill:#D35B30;" d="M211.782,108.698l-4.884,5.027l-0.287,0.301l-2.343-0.581c1.598-3.197,3.9-5.908,6.666-7.971
							l0.84,3.19L211.782,108.698z"/>
						<path style="fill:#D35B30;" d="M246.944,124.087l-1.544-0.389l-0.055-0.191l-1.981-6.837l-0.027-0.103l1.789-1.94
							C246.384,117.564,247.033,120.781,246.944,124.087z"/>
						<polygon style="fill:#D35B30;" points="216.716,122.716 213.478,121.909 212.208,121.592 208.97,120.785 203.612,126.591 
							205.678,133.724 208.979,134.547 210.249,134.863 213.55,135.686 218.722,130.358 						"/>
						<polygon style="fill:#D35B30;" points="239.191,128.318 235.953,127.511 234.683,127.195 231.446,126.387 226.087,132.194 
							228.153,139.326 231.454,140.149 232.724,140.466 236.025,141.289 241.197,135.96 						"/>
					</g>
				</g>
			</g>
		</g>
		<g>
			<path style="fill:#F9E1A2;" d="M300.126,431.411c-0.034,1.612-0.253,3.238-0.662,4.87c-0.663,2.65-1.762,5.075-3.217,7.206
				c-1.81,2.677-4.167,4.897-6.871,6.55c-3.729,2.288-8.121,3.497-12.663,3.313c-0.43-0.014-0.854-0.048-1.284-0.089
				c-1.086-0.109-2.179-0.294-3.272-0.567c-1.509-0.376-2.944-0.895-4.296-1.55c-4.221-2.015-7.609-5.266-9.835-9.18
				c-1.51-2.657-2.486-5.615-2.814-8.709c-0.28-2.568-0.123-5.218,0.54-7.868c0.41-1.633,0.984-3.176,1.701-4.617
				c1.598-3.197,3.9-5.908,6.666-7.971c3.934-2.944,8.804-4.583,13.879-4.488c1.673,0.027,3.367,0.246,5.061,0.669
				c1.687,0.417,3.279,1.018,4.761,1.776c4.774,2.418,8.442,6.434,10.491,11.195C299.566,424.888,300.214,428.105,300.126,431.411z"
				/>
			<path style="opacity:0.7;fill:#F9E1A2;" d="M299.463,436.286c-3.009,12.07-15.237,19.413-27.307,16.404
				c-6.683-1.665-11.917-6.157-14.749-11.883c2.641,2.363,5.884,4.138,9.563,5.057c12.07,3.009,24.293-4.339,27.302-16.409
				c1.344-5.387,0.622-10.802-1.655-15.419C298.64,419.427,301.554,427.895,299.463,436.286z"/>
			<g>
				<g>
					<g>
						<path style="fill:none;stroke:#E2BC66;stroke-width:0.7852;stroke-miterlimit:10;" d="M264.031,415.899
							c0,0,17.967,1.368,33.419,8.499"/>
						
							<line style="fill:none;stroke:#E2BC66;stroke-width:0.7852;stroke-miterlimit:10;" x1="260.036" y1="420.909" x2="262.464" y2="429.171"/>
						
							<line style="fill:none;stroke:#E2BC66;stroke-width:0.7852;stroke-miterlimit:10;" x1="275.455" y1="423.438" x2="269.659" y2="430.591"/>
						
							<line style="fill:none;stroke:#E2BC66;stroke-width:0.7852;stroke-miterlimit:10;" x1="282.375" y1="425.163" x2="284.977" y2="435.421"/>
						
							<line style="fill:none;stroke:#E2BC66;stroke-width:0.7852;stroke-miterlimit:10;" x1="298.827" y1="430.579" x2="291.167" y2="436.964"/>
						<polyline style="fill:none;stroke:#E2BC66;stroke-width:0.7852;stroke-miterlimit:10;" points="277.996,408.311 
							278.494,411.139 278.699,412.307 						"/>
						<polyline style="fill:none;stroke:#E2BC66;stroke-width:0.7852;stroke-miterlimit:10;" points="287.818,410.756 
							285.939,413.004 285.174,413.919 						"/>
						<polyline style="fill:none;stroke:#E2BC66;stroke-width:0.7852;stroke-miterlimit:10;" points="255.21,433.255 
							256.993,433.699 271.828,437.401 279.464,439.307 294.306,443.002 296.246,443.487 						"/>
						<polyline style="fill:none;stroke:#E2BC66;stroke-width:0.7852;stroke-miterlimit:10;" points="258.024,441.964 
							259.083,441.103 260.012,440.352 						"/>
						<path style="fill:none;stroke:#E2BC66;stroke-width:0.7852;stroke-miterlimit:10;" d="M269.038,451.071
							c0.166-0.262-2.625-9.343-2.625-9.343l0.319,1.283"/>
						
							<line style="fill:none;stroke:#E2BC66;stroke-width:0.7852;stroke-miterlimit:10;" x1="282.413" y1="445.706" x2="275.348" y2="453.352"/>
						<polyline style="fill:none;stroke:#E2BC66;stroke-width:0.7852;stroke-miterlimit:10;" points="289.375,450.037 
							289.211,448.61 289.061,447.346 						"/>
					</g>
					<g>
						<polygon style="fill:#D35B30;" points="286.168,413.057 282.93,412.25 281.661,411.933 278.423,411.126 273.064,416.932 
							275.13,424.065 278.431,424.888 279.701,425.204 283.003,426.027 288.174,420.699 						"/>
						<path style="fill:#D35B30;" d="M276.712,453.35c-0.43-0.014-0.854-0.048-1.284-0.089c-1.086-0.109-2.179-0.294-3.272-0.567
							c-1.509-0.376-2.944-0.895-4.296-1.55l0.806-0.874l0.246,0.062l2.992,0.744l1.27,0.314l3.238,0.806L276.712,453.35z"/>
						<path style="fill:#D35B30;" d="M264.964,416.022l-4.884,5.027l-0.287,0.301l-2.343-0.581c1.598-3.197,3.9-5.908,6.666-7.971
							l0.84,3.19L264.964,416.022z"/>
						<path style="fill:#D35B30;" d="M300.126,431.411l-1.544-0.389l-0.055-0.191l-1.981-6.837l-0.027-0.103l1.79-1.94
							C299.566,424.888,300.214,428.105,300.126,431.411z"/>
						<polygon style="fill:#D35B30;" points="269.898,430.04 266.66,429.233 265.39,428.917 262.152,428.109 256.793,433.915 
							258.859,441.048 262.16,441.871 263.43,442.188 266.732,443.011 271.904,437.682 						"/>
						<polygon style="fill:#D35B30;" points="292.373,435.643 289.135,434.836 287.865,434.519 284.627,433.712 279.268,439.518 
							281.334,446.651 284.636,447.474 285.905,447.79 289.207,448.613 294.379,443.285 						"/>
					</g>
				</g>
			</g>
		</g>
		<g>
			<path style="fill:#F9E1A2;" d="M375.52,310.544c-0.034,1.612-0.253,3.238-0.662,4.87c-0.663,2.65-1.762,5.075-3.217,7.206
				c-1.81,2.677-4.167,4.897-6.871,6.55c-3.729,2.288-8.121,3.497-12.663,3.313c-0.43-0.014-0.854-0.048-1.284-0.089
				c-1.086-0.109-2.179-0.294-3.272-0.567c-1.509-0.376-2.944-0.895-4.296-1.55c-4.221-2.015-7.609-5.266-9.835-9.18
				c-1.51-2.657-2.486-5.614-2.814-8.709c-0.28-2.568-0.123-5.218,0.54-7.868c0.41-1.632,0.984-3.176,1.701-4.617
				c1.598-3.197,3.9-5.908,6.666-7.971c3.934-2.944,8.804-4.583,13.879-4.487c1.673,0.027,3.367,0.246,5.061,0.669
				c1.687,0.417,3.279,1.018,4.761,1.776c4.774,2.418,8.442,6.434,10.491,11.195C374.96,304.021,375.609,307.238,375.52,310.544z"/>
			<path style="opacity:0.7;fill:#F9E1A2;" d="M374.858,315.419c-3.009,12.07-15.237,19.413-27.307,16.404
				c-6.683-1.665-11.917-6.157-14.749-11.883c2.641,2.363,5.884,4.138,9.563,5.057c12.07,3.009,24.293-4.339,27.302-16.409
				c1.344-5.387,0.622-10.802-1.655-15.419C374.035,298.56,376.948,307.028,374.858,315.419z"/>
			<g>
				<g>
					<g>
						<path style="fill:none;stroke:#E2BC66;stroke-width:0.7852;stroke-miterlimit:10;" d="M339.426,295.032
							c0,0,17.967,1.368,33.419,8.499"/>
						
							<line style="fill:none;stroke:#E2BC66;stroke-width:0.7852;stroke-miterlimit:10;" x1="335.431" y1="300.042" x2="337.859" y2="308.304"/>
						
							<line style="fill:none;stroke:#E2BC66;stroke-width:0.7852;stroke-miterlimit:10;" x1="350.85" y1="302.571" x2="345.054" y2="309.724"/>
						
							<line style="fill:none;stroke:#E2BC66;stroke-width:0.7852;stroke-miterlimit:10;" x1="357.77" y1="304.296" x2="360.371" y2="314.554"/>
						
							<line style="fill:none;stroke:#E2BC66;stroke-width:0.7852;stroke-miterlimit:10;" x1="374.222" y1="309.712" x2="366.562" y2="316.097"/>
						<polyline style="fill:none;stroke:#E2BC66;stroke-width:0.7852;stroke-miterlimit:10;" points="353.391,287.444 
							353.889,290.272 354.094,291.44 						"/>
						<polyline style="fill:none;stroke:#E2BC66;stroke-width:0.7852;stroke-miterlimit:10;" points="363.212,289.89 
							361.334,292.137 360.569,293.052 						"/>
						<polyline style="fill:none;stroke:#E2BC66;stroke-width:0.7852;stroke-miterlimit:10;" points="330.605,312.388 
							332.388,312.832 347.223,316.534 354.859,318.44 369.701,322.135 371.641,322.62 						"/>
						<polyline style="fill:none;stroke:#E2BC66;stroke-width:0.7852;stroke-miterlimit:10;" points="333.419,321.097 
							334.478,320.236 335.407,319.485 						"/>
						<path style="fill:none;stroke:#E2BC66;stroke-width:0.7852;stroke-miterlimit:10;" d="M344.433,330.204
							c0.166-0.262-2.625-9.343-2.625-9.343l0.319,1.283"/>
						
							<line style="fill:none;stroke:#E2BC66;stroke-width:0.7852;stroke-miterlimit:10;" x1="357.808" y1="324.839" x2="350.743" y2="332.485"/>
						<polyline style="fill:none;stroke:#E2BC66;stroke-width:0.7852;stroke-miterlimit:10;" points="364.77,329.17 
							364.606,327.743 364.456,326.479 						"/>
					</g>
					<g>
						<polygon style="fill:#D35B30;" points="361.563,292.19 358.325,291.383 357.055,291.066 353.818,290.259 348.459,296.065 
							350.525,303.198 353.826,304.021 355.096,304.337 358.397,305.16 363.569,299.832 						"/>
						<path style="fill:#D35B30;" d="M352.107,332.483c-0.43-0.014-0.854-0.048-1.284-0.089c-1.086-0.109-2.179-0.294-3.272-0.567
							c-1.509-0.376-2.944-0.895-4.296-1.55l0.806-0.874l0.246,0.061l2.992,0.745l1.27,0.314l3.238,0.806L352.107,332.483z"/>
						<path style="fill:#D35B30;" d="M340.358,295.156l-4.884,5.027l-0.287,0.301l-2.343-0.581c1.598-3.197,3.9-5.908,6.666-7.971
							l0.84,3.19L340.358,295.156z"/>
						<path style="fill:#D35B30;" d="M375.52,310.544l-1.544-0.389l-0.055-0.191l-1.981-6.837l-0.027-0.102l1.789-1.94
							C374.96,304.021,375.609,307.238,375.52,310.544z"/>
						<polygon style="fill:#D35B30;" points="345.292,309.173 342.055,308.366 340.785,308.05 337.547,307.243 332.188,313.049 
							334.254,320.181 337.555,321.004 338.825,321.321 342.127,322.144 347.299,316.815 						"/>
						<polygon style="fill:#D35B30;" points="367.768,314.776 364.53,313.969 363.26,313.652 360.022,312.845 354.663,318.651 
							356.729,325.784 360.031,326.607 361.3,326.924 364.602,327.746 369.774,322.418 						"/>
					</g>
				</g>
			</g>
		</g>
		<g>
			<path style="fill:#F9E1A2;" d="M509.612,87.573c-0.034,1.612-0.253,3.238-0.662,4.87c-0.663,2.65-1.762,5.075-3.217,7.206
				c-1.81,2.677-4.167,4.897-6.871,6.55c-3.729,2.288-8.121,3.497-12.663,3.313c-0.43-0.014-0.854-0.048-1.284-0.089
				c-1.086-0.109-2.179-0.294-3.272-0.567c-1.509-0.376-2.944-0.895-4.296-1.55c-4.221-2.015-7.609-5.266-9.835-9.18
				c-1.51-2.657-2.486-5.615-2.814-8.709c-0.28-2.568-0.123-5.218,0.54-7.868c0.41-1.632,0.984-3.176,1.701-4.617
				c1.598-3.196,3.9-5.908,6.666-7.971c3.934-2.944,8.804-4.583,13.879-4.488c1.673,0.027,3.367,0.246,5.061,0.669
				c1.687,0.417,3.279,1.018,4.761,1.776c4.774,2.418,8.442,6.434,10.491,11.195C509.052,81.05,509.701,84.267,509.612,87.573z"/>
			<path style="opacity:0.7;fill:#F9E1A2;" d="M508.949,92.448c-3.009,12.07-15.237,19.413-27.307,16.404
				c-6.683-1.665-11.917-6.157-14.749-11.883c2.641,2.363,5.884,4.138,9.563,5.057c12.07,3.009,24.293-4.339,27.302-16.409
				c1.344-5.387,0.622-10.802-1.655-15.419C508.127,75.589,511.04,84.057,508.949,92.448z"/>
			<g>
				<g>
					<g>
						<path style="fill:none;stroke:#E2BC66;stroke-width:0.7852;stroke-miterlimit:10;" d="M473.518,72.061
							c0,0,17.967,1.368,33.419,8.499"/>
						
							<line style="fill:none;stroke:#E2BC66;stroke-width:0.7852;stroke-miterlimit:10;" x1="469.522" y1="77.071" x2="471.95" y2="85.332"/>
						
							<line style="fill:none;stroke:#E2BC66;stroke-width:0.7852;stroke-miterlimit:10;" x1="484.941" y1="79.599" x2="479.146" y2="86.753"/>
						
							<line style="fill:none;stroke:#E2BC66;stroke-width:0.7852;stroke-miterlimit:10;" x1="491.861" y1="81.325" x2="494.463" y2="91.582"/>
						
							<line style="fill:none;stroke:#E2BC66;stroke-width:0.7852;stroke-miterlimit:10;" x1="508.314" y1="86.741" x2="500.653" y2="93.126"/>
						<polyline style="fill:none;stroke:#E2BC66;stroke-width:0.7852;stroke-miterlimit:10;" points="487.482,64.473 
							487.981,67.301 488.186,68.469 						"/>
						<polyline style="fill:none;stroke:#E2BC66;stroke-width:0.7852;stroke-miterlimit:10;" points="497.304,66.918 
							495.426,69.165 494.661,70.08 						"/>
						<polyline style="fill:none;stroke:#E2BC66;stroke-width:0.7852;stroke-miterlimit:10;" points="464.696,89.417 
							466.479,89.861 481.314,93.563 488.951,95.468 503.793,99.164 505.733,99.649 						"/>
						<polyline style="fill:none;stroke:#E2BC66;stroke-width:0.7852;stroke-miterlimit:10;" points="467.511,98.126 
							468.569,97.265 469.498,96.513 						"/>
						<path style="fill:none;stroke:#E2BC66;stroke-width:0.7852;stroke-miterlimit:10;" d="M478.525,107.233
							c0.166-0.262-2.625-9.343-2.625-9.343l0.319,1.283"/>
						
							<line style="fill:none;stroke:#E2BC66;stroke-width:0.7852;stroke-miterlimit:10;" x1="491.899" y1="101.868" x2="484.834" y2="109.514"/>
						<polyline style="fill:none;stroke:#E2BC66;stroke-width:0.7852;stroke-miterlimit:10;" points="498.861,106.199 
							498.697,104.771 498.547,103.508 						"/>
					</g>
					<g>
						<polygon style="fill:#D35B30;" points="495.655,69.218 492.417,68.411 491.147,68.095 487.909,67.287 482.551,73.094 
							484.616,80.226 487.918,81.049 489.187,81.366 492.489,82.189 497.661,76.86 						"/>
						<path style="fill:#D35B30;" d="M486.198,109.511c-0.43-0.014-0.854-0.048-1.284-0.089c-1.086-0.109-2.179-0.294-3.272-0.567
							c-1.509-0.376-2.944-0.895-4.296-1.55l0.806-0.874l0.246,0.062l2.992,0.744l1.27,0.314l3.238,0.806L486.198,109.511z"/>
						<path style="fill:#D35B30;" d="M474.45,72.184l-4.884,5.027l-0.287,0.301l-2.343-0.581c1.598-3.196,3.9-5.908,6.666-7.971
							l0.84,3.19L474.45,72.184z"/>
						<path style="fill:#D35B30;" d="M509.612,87.573l-1.544-0.389l-0.055-0.191l-1.981-6.837l-0.027-0.103l1.79-1.94
							C509.052,81.05,509.701,84.267,509.612,87.573z"/>
						<polygon style="fill:#D35B30;" points="479.384,86.202 476.146,85.395 474.876,85.078 471.638,84.271 466.28,90.077 
							468.346,97.21 471.647,98.033 472.917,98.349 476.218,99.173 481.39,93.844 						"/>
						<polygon style="fill:#D35B30;" points="501.859,91.804 498.621,90.997 497.351,90.681 494.114,89.874 488.755,95.68 
							490.821,102.813 494.122,103.635 495.392,103.952 498.693,104.775 503.865,99.447 						"/>
					</g>
				</g>
			</g>
		</g>
	</g>
</g>
</svg>
